<svg width="46" height="20" viewBox="0 0 46 20" fill="none" xmlns="http://www.w3.org/2000/svg">
<g clip-path="url(#clip0_172_5015)">
<path d="M10 20.0111C15.5228 20.0111 20 15.5339 20 10.0111C20 4.48821 15.5228 0.0111084 10 0.0111084C4.47715 0.0111084 0 4.48821 0 10.0111C0 15.5339 4.47715 20.0111 10 20.0111Z" fill="#666666"/>
<path d="M0 30C5.52285 30 10 25.5228 10 20C10 14.4772 5.52285 10 0 10C-5.52285 10 -10 14.4772 -10 20C-10 25.5228 -5.52285 30 0 30Z" fill="#141414"/>
<path d="M20 30C25.5228 30 30 25.5228 30 20C30 14.4772 25.5228 10 20 10C14.4772 10 10 14.4772 10 20C10 25.5228 14.4772 30 20 30Z" fill="#141414"/>
<path d="M0 10C5.52285 10 10 5.52285 10 0C10 -5.52285 5.52285 -10 0 -10C-5.52285 -10 -10 -5.52285 -10 0C-10 5.52285 -5.52285 10 0 10Z" fill="#141414"/>
<path d="M20 10C25.5228 10 30 5.52285 30 0C30 -5.52285 25.5228 -10 20 -10C14.4772 -10 10 -5.52285 10 0C10 5.52285 14.4772 10 20 10Z" fill="#141414"/>
</g>
<g clip-path="url(#clip1_172_5015)">
<path d="M30 16.0067C33.3137 16.0067 36 13.3204 36 10.0067C36 6.69297 33.3137 4.00671 30 4.00671C26.6863 4.00671 24 6.69297 24 10.0067C24 13.3204 26.6863 16.0067 30 16.0067Z" fill="#333333"/>
<path d="M24 22C27.3137 22 30 19.3137 30 16C30 12.6863 27.3137 10 24 10C20.6863 10 18 12.6863 18 16C18 19.3137 20.6863 22 24 22Z" fill="#141414"/>
<path d="M36 22C39.3137 22 42 19.3137 42 16C42 12.6863 39.3137 10 36 10C32.6863 10 30 12.6863 30 16C30 19.3137 32.6863 22 36 22Z" fill="#141414"/>
<path d="M24 10C27.3137 10 30 7.31371 30 4C30 0.686292 27.3137 -2 24 -2C20.6863 -2 18 0.686292 18 4C18 7.31371 20.6863 10 24 10Z" fill="#141414"/>
<path d="M36 10C39.3137 10 42 7.31371 42 4C42 0.686292 39.3137 -2 36 -2C32.6863 -2 30 0.686292 30 4C30 7.31371 32.6863 10 36 10Z" fill="#141414"/>
</g>
<g clip-path="url(#clip2_172_5015)">
<path d="M42.8 12.803C44.3464 12.803 45.6 11.5494 45.6 10.003C45.6 8.45659 44.3464 7.203 42.8 7.203C41.2536 7.203 40 8.45659 40 10.003C40 11.5494 41.2536 12.803 42.8 12.803Z" fill="#333333"/>
<path d="M39.9992 15.5999C41.5456 15.5999 42.7992 14.3463 42.7992 12.7999C42.7992 11.2535 41.5456 9.99988 39.9992 9.99988C38.4528 9.99988 37.1992 11.2535 37.1992 12.7999C37.1992 14.3463 38.4528 15.5999 39.9992 15.5999Z" fill="#141414"/>
<path d="M45.6008 15.5999C47.1472 15.5999 48.4008 14.3463 48.4008 12.7999C48.4008 11.2535 47.1472 9.99988 45.6008 9.99988C44.0544 9.99988 42.8008 11.2535 42.8008 12.7999C42.8008 14.3463 44.0544 15.5999 45.6008 15.5999Z" fill="#141414"/>
<path d="M39.9992 9.9999C41.5456 9.9999 42.7992 8.7463 42.7992 7.1999C42.7992 5.6535 41.5456 4.3999 39.9992 4.3999C38.4528 4.3999 37.1992 5.6535 37.1992 7.1999C37.1992 8.7463 38.4528 9.9999 39.9992 9.9999Z" fill="#141414"/>
<path d="M45.6008 9.9999C47.1472 9.9999 48.4008 8.7463 48.4008 7.1999C48.4008 5.6535 47.1472 4.3999 45.6008 4.3999C44.0544 4.3999 42.8008 5.6535 42.8008 7.1999C42.8008 8.7463 44.0544 9.9999 45.6008 9.9999Z" fill="#141414"/>
</g>
<defs>
<clipPath id="clip0_172_5015">
<rect width="20" height="20" fill="white"/>
</clipPath>
<clipPath id="clip1_172_5015">
<rect width="12" height="12" fill="white" transform="translate(24 4)"/>
</clipPath>
<clipPath id="clip2_172_5015">
<rect width="5.6" height="5.6" fill="white" transform="translate(40 7.19995)"/>
</clipPath>
</defs>
</svg>
