<svg width="46" height="20" viewBox="0 0 46 20" fill="none" xmlns="http://www.w3.org/2000/svg">
<g clip-path="url(#clip0_146_12260)">
<path d="M10 20.0112C15.5228 20.0112 20 15.534 20 10.0112C20 4.48833 15.5228 0.0112305 10 0.0112305C4.47715 0.0112305 0 4.48833 0 10.0112C0 15.534 4.47715 20.0112 10 20.0112Z" fill="#666666"/>
<path d="M0 30C5.52285 30 10 25.5228 10 20C10 14.4772 5.52285 10 0 10C-5.52285 10 -10 14.4772 -10 20C-10 25.5228 -5.52285 30 0 30Z" fill="#141414"/>
<path d="M20 30C25.5228 30 30 25.5228 30 20C30 14.4772 25.5228 10 20 10C14.4772 10 10 14.4772 10 20C10 25.5228 14.4772 30 20 30Z" fill="#141414"/>
<path d="M0 10C5.52285 10 10 5.52285 10 0C10 -5.52285 5.52285 -10 0 -10C-5.52285 -10 -10 -5.52285 -10 0C-10 5.52285 -5.52285 10 0 10Z" fill="#141414"/>
<path d="M20 10C25.5228 10 30 5.52285 30 0C30 -5.52285 25.5228 -10 20 -10C14.4772 -10 10 -5.52285 10 0C10 5.52285 14.4772 10 20 10Z" fill="#141414"/>
</g>
<g clip-path="url(#clip1_146_12260)">
<path d="M30 16.0068C33.3137 16.0068 36 13.3205 36 10.0068C36 6.69309 33.3137 4.00684 30 4.00684C26.6863 4.00684 24 6.69309 24 10.0068C24 13.3205 26.6863 16.0068 30 16.0068Z" fill="#333333"/>
<path d="M24 22C27.3137 22 30 19.3137 30 16C30 12.6863 27.3137 10 24 10C20.6863 10 18 12.6863 18 16C18 19.3137 20.6863 22 24 22Z" fill="#141414"/>
<path d="M36 22C39.3137 22 42 19.3137 42 16C42 12.6863 39.3137 10 36 10C32.6863 10 30 12.6863 30 16C30 19.3137 32.6863 22 36 22Z" fill="#141414"/>
<path d="M24 10C27.3137 10 30 7.31371 30 4C30 0.686292 27.3137 -2 24 -2C20.6863 -2 18 0.686292 18 4C18 7.31371 20.6863 10 24 10Z" fill="#141414"/>
<path d="M36 10C39.3137 10 42 7.31371 42 4C42 0.686292 39.3137 -2 36 -2C32.6863 -2 30 0.686292 30 4C30 7.31371 32.6863 10 36 10Z" fill="#141414"/>
</g>
<g clip-path="url(#clip2_146_12260)">
<path d="M42.8 12.8036C44.3464 12.8036 45.6 11.55 45.6 10.0036C45.6 8.4572 44.3464 7.20361 42.8 7.20361C41.2536 7.20361 40 8.4572 40 10.0036C40 11.55 41.2536 12.8036 42.8 12.8036Z" fill="#333333"/>
<path d="M39.9992 15.6005C41.5456 15.6005 42.7992 14.3469 42.7992 12.8005C42.7992 11.2541 41.5456 10.0005 39.9992 10.0005C38.4528 10.0005 37.1992 11.2541 37.1992 12.8005C37.1992 14.3469 38.4528 15.6005 39.9992 15.6005Z" fill="#141414"/>
<path d="M45.5988 15.6005C47.1452 15.6005 48.3988 14.3469 48.3988 12.8005C48.3988 11.2541 47.1452 10.0005 45.5988 10.0005C44.0524 10.0005 42.7988 11.2541 42.7988 12.8005C42.7988 14.3469 44.0524 15.6005 45.5988 15.6005Z" fill="#141414"/>
<path d="M39.9992 10.0004C41.5456 10.0004 42.7992 8.74679 42.7992 7.20039C42.7992 5.65399 41.5456 4.40039 39.9992 4.40039C38.4528 4.40039 37.1992 5.65399 37.1992 7.20039C37.1992 8.74679 38.4528 10.0004 39.9992 10.0004Z" fill="#141414"/>
<path d="M45.5988 10.0004C47.1452 10.0004 48.3988 8.74679 48.3988 7.20039C48.3988 5.65399 47.1452 4.40039 45.5988 4.40039C44.0524 4.40039 42.7988 5.65399 42.7988 7.20039C42.7988 8.74679 44.0524 10.0004 45.5988 10.0004Z" fill="#141414"/>
</g>
<defs>
<clipPath id="clip0_146_12260">
<rect width="20" height="20" fill="white"/>
</clipPath>
<clipPath id="clip1_146_12260">
<rect width="12" height="12" fill="white" transform="translate(24 4)"/>
</clipPath>
<clipPath id="clip2_146_12260">
<rect width="5.6" height="5.6" fill="white" transform="translate(40 7.2002)"/>
</clipPath>
</defs>
</svg>
