<svg width="44" height="44" viewBox="0 0 44 44" fill="none" xmlns="http://www.w3.org/2000/svg">
<rect x="0.5" y="0.5" width="43" height="43" rx="21.5" stroke="#262626"/>
<path fill-rule="evenodd" clip-rule="evenodd" d="M30.4004 21.9998C30.4004 22.4969 29.9974 22.8998 29.5004 22.8998L16.7349 22.8998L21.7242 27.6511C22.0825 27.9956 22.0937 28.5653 21.7491 28.9236C21.4046 29.2819 20.8349 29.2931 20.4766 28.9486L13.8766 22.6486C13.7001 22.4789 13.6004 22.2446 13.6004 21.9998C13.6004 21.755 13.7001 21.5207 13.8766 21.3511L20.4766 15.0511C20.8349 14.7065 21.4046 14.7177 21.7491 15.076C22.0937 15.4343 22.0825 16.004 21.7242 16.3486L16.7349 21.0998L29.5004 21.0998C29.9974 21.0998 30.4004 21.5027 30.4004 21.9998Z" fill="#808080"/>
</svg>
