<svg width="52" height="52" viewBox="0 0 52 52" fill="none" xmlns="http://www.w3.org/2000/svg">
<rect width="52" height="52" rx="26" fill="#141414"/>
<path d="M34.4701 15.9999H17.5301C17.3396 15.9973 17.1506 16.0321 16.9736 16.1026C16.7967 16.173 16.6354 16.2776 16.4989 16.4104C16.3624 16.5432 16.2533 16.7016 16.1781 16.8765C16.1028 17.0514 16.0627 17.2395 16.0601 17.4299V34.5699C16.0627 34.7603 16.1028 34.9484 16.1781 35.1233C16.2533 35.2982 16.3624 35.4566 16.4989 35.5894C16.6354 35.7222 16.7967 35.8268 16.9736 35.8972C17.1506 35.9676 17.3396 36.0025 17.5301 35.9999H34.4701C34.6605 36.0025 34.8496 35.9676 35.0265 35.8972C35.2034 35.8268 35.3648 35.7222 35.5013 35.5894C35.6378 35.4566 35.7468 35.2982 35.8221 35.1233C35.8974 34.9484 35.9375 34.7603 35.9401 34.5699V17.4299C35.9375 17.2395 35.8974 17.0514 35.8221 16.8765C35.7468 16.7016 35.6378 16.5432 35.5013 16.4104C35.3648 16.2776 35.2034 16.173 35.0265 16.1026C34.8496 16.0321 34.6605 15.9973 34.4701 15.9999ZM22.0901 32.7399H19.0901V23.7399H22.0901V32.7399ZM20.5901 22.4799C20.1763 22.4799 19.7795 22.3155 19.487 22.023C19.1944 21.7304 19.0301 21.3336 19.0301 20.9199C19.0301 20.5062 19.1944 20.1094 19.487 19.8168C19.7795 19.5243 20.1763 19.3599 20.5901 19.3599C20.8098 19.335 21.0322 19.3567 21.2429 19.4238C21.4536 19.4908 21.6478 19.6016 21.8127 19.7489C21.9776 19.8961 22.1096 20.0766 22.1999 20.2784C22.2903 20.4802 22.337 20.6988 22.337 20.9199C22.337 21.141 22.2903 21.3596 22.1999 21.5614C22.1096 21.7632 21.9776 21.9437 21.8127 22.0909C21.6478 22.2382 21.4536 22.349 21.2429 22.416C21.0322 22.483 20.8098 22.5048 20.5901 22.4799ZM32.9101 32.7399H29.9101V27.9099C29.9101 26.6999 29.4801 25.9099 28.3901 25.9099C28.0527 25.9124 27.7242 26.0182 27.4489 26.2131C27.1735 26.408 26.9645 26.6826 26.8501 26.9999C26.7718 27.2349 26.7379 27.4825 26.7501 27.7299V32.7299H23.7501C23.7501 32.7299 23.7501 24.5499 23.7501 23.7299H26.7501V24.9999C27.0226 24.527 27.419 24.1374 27.8965 23.8731C28.374 23.6088 28.9146 23.4797 29.4601 23.4999C31.4601 23.4999 32.9101 24.7899 32.9101 27.5599V32.7399Z" fill="white"/>
</svg>
