<svg width="44" height="44" viewBox="0 0 44 44" fill="none" xmlns="http://www.w3.org/2000/svg">
<rect x="0.5" y="0.5" width="43" height="43" rx="21.5" fill="#1A1A1A"/>
<rect x="0.5" y="0.5" width="43" height="43" rx="21.5" stroke="#262626"/>
<path fill-rule="evenodd" clip-rule="evenodd" d="M13.5996 22.0002C13.5996 21.5031 14.0026 21.1002 14.4996 21.1002L27.2651 21.1002L22.2758 16.3489C21.9175 16.0044 21.9063 15.4347 22.2509 15.0764C22.5954 14.7181 23.1651 14.7069 23.5234 15.0514L30.1234 21.3514C30.2999 21.5211 30.3996 21.7554 30.3996 22.0002C30.3996 22.245 30.2999 22.4793 30.1234 22.6489L23.5234 28.9489C23.1651 29.2935 22.5954 29.2823 22.2509 28.924C21.9063 28.5657 21.9175 27.996 22.2758 27.6514L27.2651 22.9002L14.4996 22.9002C14.0026 22.9002 13.5996 22.4973 13.5996 22.0002Z" fill="white"/>
</svg>
