<svg width="52" height="52" viewBox="0 0 52 52" fill="none" xmlns="http://www.w3.org/2000/svg">
<rect width="52" height="52" rx="26" fill="#141414"/>
<path d="M36 19.8C35.2483 20.1261 34.4534 20.3416 33.64 20.44C34.4982 19.9273 35.1413 19.1207 35.45 18.17C34.6436 18.65 33.7608 18.9883 32.84 19.17C32.2245 18.5025 31.405 18.0583 30.5098 17.9068C29.6147 17.7554 28.6945 17.9053 27.8938 18.3332C27.093 18.761 26.4569 19.4425 26.0852 20.2708C25.7135 21.0991 25.6273 22.0274 25.84 22.91C24.2094 22.8275 22.6144 22.4029 21.1587 21.6638C19.7029 20.9247 18.4188 19.8877 17.39 18.62C17.0291 19.2501 16.8395 19.9638 16.84 20.69C16.8387 21.3643 17.0042 22.0286 17.3218 22.6235C17.6393 23.2185 18.099 23.7257 18.66 24.1C18.008 24.0822 17.3699 23.9073 16.8 23.59V23.64C16.8049 24.5849 17.136 25.4991 17.7373 26.2279C18.3386 26.9568 19.1733 27.4556 20.1 27.64C19.7433 27.7485 19.3729 27.8058 19 27.81C18.7419 27.807 18.4844 27.7835 18.23 27.74C18.4939 28.5528 19.0046 29.2631 19.6911 29.7721C20.3775 30.2811 21.2056 30.5635 22.06 30.58C20.6172 31.7152 18.8359 32.3348 17 32.34C16.6657 32.3411 16.3317 32.321 16 32.28C17.8744 33.4902 20.0588 34.1327 22.29 34.13C23.8297 34.146 25.3571 33.855 26.7831 33.274C28.2091 32.6931 29.505 31.8338 30.5952 30.7465C31.6854 29.6591 32.548 28.3654 33.1326 26.9409C33.7172 25.5164 34.012 23.9897 34 22.45C34 22.28 34 22.1 34 21.92C34.7847 21.3348 35.4615 20.6174 36 19.8Z" fill="white"/>
</svg>
