<svg width="122" height="33" viewBox="0 0 122 33" fill="none" xmlns="http://www.w3.org/2000/svg">
<rect x="0.5" y="0.5" width="121" height="32" rx="16" fill="#1A1A1A"/>
<rect x="0.5" y="0.5" width="121" height="32" rx="16" stroke="#262626"/>
<g clip-path="url(#clip0_139_6664)">
<g clip-path="url(#clip1_139_6664)">
<path d="M24.0119 23.9597C21.0137 23.9597 18.0163 23.9597 15.0181 23.9597C14.7149 23.9597 14.5748 24.0984 14.5748 24.3977C14.5748 24.4752 14.5787 24.5527 14.574 24.6295C14.5677 24.7225 14.5583 24.8155 14.5409 24.9062C14.4764 25.2372 14.1591 25.5023 13.7796 25.4984C13.3985 25.4946 13.0828 25.2116 13.0253 24.8481C13.0119 24.7628 13.0048 24.6752 13.0048 24.5891C13.004 22.8279 12.9922 21.0659 13.0088 19.3046C13.0182 18.2783 13.3977 17.3853 14.1252 16.6419C14.5669 16.1907 15.0921 15.8698 15.6928 15.6651C16.1652 15.5046 16.6534 15.4558 17.151 15.4558C21.7625 15.4574 26.3739 15.4535 30.9854 15.4589C32.3365 15.4605 33.4309 15.9969 34.2419 17.0636C34.6403 17.5884 34.8781 18.1845 34.9592 18.8357C34.9867 19.055 34.9985 19.2783 34.9993 19.5C35.0025 21.2101 35.0017 22.9202 35.0009 24.6302C35.0009 24.8977 34.934 25.1411 34.7104 25.3178C34.4741 25.5046 34.2104 25.5535 33.9293 25.4395C33.66 25.3295 33.49 25.1271 33.4514 24.838C33.4317 24.6922 33.4341 24.5426 33.4301 24.3953C33.4238 24.1574 33.3238 24.0139 33.1239 23.9698C33.0798 23.9597 33.0333 23.9605 32.9876 23.9605C29.9965 23.9605 27.0054 23.9605 24.0135 23.9605L24.0119 23.9597Z" fill="white"/>
<path d="M23.902 8.5C25.8467 8.5 27.7907 8.5 29.7346 8.5C30.3858 8.5 30.9944 8.64341 31.5195 9.03953C32.1951 9.54884 32.5895 10.2194 32.6226 11.0612C32.651 11.7752 32.6384 12.4907 32.6415 13.2054C32.6439 13.6659 32.6415 14.1264 32.6415 14.5868C32.6415 14.6279 32.6391 14.6713 32.6281 14.7109C32.5943 14.8357 32.5258 14.8853 32.3966 14.8612C32.2557 14.8349 32.1195 14.7783 31.9786 14.7628C31.6471 14.7271 31.3148 14.7023 30.9818 14.6853C30.7597 14.6736 30.6913 14.6341 30.6598 14.4194C30.559 13.7388 29.9189 13.1264 29.1 13.1357C28.1867 13.1457 27.2734 13.138 26.3609 13.138C25.6814 13.138 25.1011 13.5364 24.8704 14.1643C24.8373 14.2543 24.8247 14.3519 24.8074 14.4465C24.7751 14.6163 24.7114 14.6798 24.5397 14.6822C24.1799 14.686 23.8193 14.686 23.4595 14.6822C23.2941 14.6806 23.2288 14.6163 23.1989 14.4279C23.1571 14.1636 23.0532 13.9279 22.8831 13.7209C22.5753 13.3457 22.1769 13.1419 21.6856 13.1395C20.7431 13.1349 19.8007 13.1372 18.8575 13.1388C18.0654 13.1395 17.4457 13.7488 17.345 14.4178C17.3127 14.6341 17.2473 14.6721 17.0253 14.686C16.6576 14.7101 16.2899 14.7442 15.923 14.7829C15.8104 14.7946 15.7026 14.8426 15.5908 14.8612C15.4703 14.8806 15.4144 14.8403 15.3805 14.724C15.3672 14.6783 15.3609 14.6295 15.3609 14.5814C15.3601 13.4767 15.3451 12.3721 15.364 11.2674C15.3837 10.1116 15.9262 9.26202 16.9875 8.74806C17.408 8.54574 17.8638 8.5 18.3252 8.5C20.1841 8.5 22.0431 8.5 23.902 8.5Z" fill="white"/>
</g>
</g>
<path d="M41.472 21.182C40.8793 21.182 40.352 21.049 39.89 20.783C39.4327 20.5123 39.0733 20.153 38.812 19.705C38.5507 19.2523 38.42 18.7507 38.42 18.2H39.596C39.596 18.5313 39.673 18.8347 39.827 19.11C39.981 19.3807 40.198 19.5977 40.478 19.761C40.758 19.9243 41.0893 20.006 41.472 20.006C41.8033 20.006 42.1113 19.9243 42.396 19.761C42.6853 19.5977 42.9187 19.3807 43.096 19.11C43.2733 18.8347 43.362 18.5313 43.362 18.2C43.362 17.7847 43.2547 17.4393 43.04 17.164C42.83 16.884 42.536 16.6763 42.158 16.541C41.7847 16.401 41.3577 16.331 40.877 16.331V15.386C41.5397 15.386 42.0693 15.2483 42.466 14.973C42.8673 14.6977 43.068 14.2917 43.068 13.755C43.068 13.4703 42.991 13.209 42.837 12.971C42.683 12.733 42.48 12.544 42.228 12.404C41.9807 12.2593 41.7147 12.187 41.43 12.187C41.1407 12.187 40.863 12.2593 40.597 12.404C40.331 12.544 40.114 12.733 39.946 12.971C39.778 13.209 39.694 13.4703 39.694 13.755H38.518C38.518 13.377 38.595 13.0223 38.749 12.691C38.9077 12.3597 39.1223 12.068 39.393 11.816C39.6683 11.564 39.9787 11.368 40.324 11.228C40.6693 11.0833 41.0333 11.011 41.416 11.011C41.9153 11.011 42.3797 11.1347 42.809 11.382C43.2383 11.6293 43.5837 11.9607 43.845 12.376C44.111 12.7913 44.244 13.251 44.244 13.755C44.244 14.2077 44.1297 14.6253 43.901 15.008C43.6723 15.3907 43.362 15.659 42.97 15.813C43.3107 15.9297 43.5977 16.1117 43.831 16.359C44.0643 16.6017 44.2393 16.8817 44.356 17.199C44.4773 17.5163 44.538 17.85 44.538 18.2C44.538 18.746 44.3957 19.2453 44.111 19.698C43.831 20.1507 43.4577 20.5123 42.991 20.783C42.529 21.049 42.0227 21.182 41.472 21.182ZM45.799 16.212H50.279V17.388H45.799V16.212ZM51.965 21V11.2H55.346C55.8313 11.2 56.2723 11.3003 56.669 11.501C57.0703 11.697 57.3877 11.984 57.621 12.362C57.8543 12.74 57.971 13.1927 57.971 13.72C57.971 14.0047 57.922 14.28 57.824 14.546C57.7307 14.8073 57.6 15.0337 57.432 15.225C57.2687 15.4117 57.082 15.5377 56.872 15.603C57.166 15.6777 57.4157 15.8107 57.621 16.002C57.8263 16.1887 57.992 16.408 58.118 16.66C58.2487 16.912 58.342 17.1757 58.398 17.451C58.454 17.7263 58.482 17.9923 58.482 18.249C58.482 18.7903 58.3583 19.2687 58.111 19.684C57.8683 20.0947 57.5417 20.4167 57.131 20.65C56.7203 20.8833 56.2677 21 55.773 21H51.965ZM53.141 19.964H55.668C55.99 19.964 56.2817 19.8823 56.543 19.719C56.809 19.551 57.0213 19.3223 57.18 19.033C57.3387 18.7437 57.418 18.417 57.418 18.053C57.418 17.731 57.3387 17.4277 57.18 17.143C57.0213 16.8537 56.809 16.6203 56.543 16.443C56.2817 16.2657 55.99 16.177 55.668 16.177H53.141V19.964ZM53.141 15.162H55.234C55.6633 15.162 56.0297 15.036 56.333 14.784C56.641 14.5273 56.795 14.1703 56.795 13.713C56.795 13.2183 56.641 12.8497 56.333 12.607C56.0297 12.3597 55.6633 12.236 55.234 12.236H53.141V15.162ZM62.6602 21.182C62.0162 21.182 61.4282 21.0163 60.8962 20.685C60.3689 20.3537 59.9466 19.9103 59.6292 19.355C59.3166 18.795 59.1602 18.1767 59.1602 17.5C59.1602 16.9867 59.2512 16.5083 59.4332 16.065C59.6152 15.617 59.8649 15.225 60.1822 14.889C60.5042 14.5483 60.8776 14.2823 61.3022 14.091C61.7269 13.8997 62.1796 13.804 62.6602 13.804C63.1876 13.804 63.6706 13.9113 64.1092 14.126C64.5526 14.336 64.9306 14.63 65.2432 15.008C65.5606 15.386 65.7962 15.8247 65.9502 16.324C66.1089 16.8233 66.1672 17.3577 66.1252 17.927H60.4132C60.4692 18.3237 60.5999 18.6783 60.8052 18.991C61.0106 19.299 61.2719 19.544 61.5892 19.726C61.9112 19.908 62.2682 20.0013 62.6602 20.006C63.0802 20.006 63.4606 19.8987 63.8012 19.684C64.1419 19.4647 64.4172 19.166 64.6272 18.788L65.8242 19.068C65.5442 19.6887 65.1219 20.1973 64.5572 20.594C63.9926 20.986 63.3602 21.182 62.6602 21.182ZM60.3782 17.003H64.9422C64.9049 16.611 64.7789 16.254 64.5642 15.932C64.3496 15.6053 64.0766 15.344 63.7452 15.148C63.4139 14.952 63.0522 14.854 62.6602 14.854C62.2682 14.854 61.9089 14.9497 61.5822 15.141C61.2556 15.3323 60.9849 15.5913 60.7702 15.918C60.5602 16.24 60.4296 16.6017 60.3782 17.003ZM72.8988 10.5H74.0748V21H72.8988V19.81C72.6608 20.2207 72.3412 20.552 71.9398 20.804C71.5385 21.056 71.0672 21.182 70.5258 21.182C70.0172 21.182 69.5412 21.0863 69.0978 20.895C68.6545 20.7037 68.2625 20.44 67.9218 20.104C67.5858 19.7633 67.3222 19.3713 67.1308 18.928C66.9395 18.4847 66.8438 18.0087 66.8438 17.5C66.8438 16.9913 66.9395 16.5153 67.1308 16.072C67.3222 15.624 67.5858 15.232 67.9218 14.896C68.2625 14.5553 68.6545 14.2893 69.0978 14.098C69.5412 13.9067 70.0172 13.811 70.5258 13.811C71.0672 13.811 71.5385 13.937 71.9398 14.189C72.3412 14.441 72.6608 14.7723 72.8988 15.183V10.5ZM70.5398 20.041C71.0018 20.041 71.4008 19.929 71.7368 19.705C72.0775 19.4763 72.3388 19.1683 72.5208 18.781C72.7075 18.3937 72.8008 17.9667 72.8008 17.5C72.8008 17.024 72.7075 16.5947 72.5208 16.212C72.3342 15.8247 72.0705 15.519 71.7298 15.295C71.3938 15.0663 70.9972 14.952 70.5398 14.952C70.0778 14.952 69.6578 15.0663 69.2798 15.295C68.9065 15.5237 68.6078 15.8317 68.3838 16.219C68.1598 16.6017 68.0478 17.0287 68.0478 17.5C68.0478 17.9713 68.1622 18.4007 68.3908 18.788C68.6195 19.1707 68.9228 19.4763 69.3008 19.705C69.6788 19.929 70.0918 20.041 70.5398 20.041ZM75.7541 21V14H76.9301V14.875C77.1774 14.5483 77.4901 14.2893 77.8681 14.098C78.2461 13.902 78.6567 13.804 79.1001 13.804C79.3707 13.804 79.6321 13.839 79.8841 13.909L79.4081 15.085C79.2167 15.0243 79.0301 14.994 78.8481 14.994C78.4981 14.994 78.1761 15.0803 77.8821 15.253C77.5927 15.421 77.3617 15.6497 77.1891 15.939C77.0164 16.2283 76.9301 16.5503 76.9301 16.905V21H75.7541ZM83.4688 21.182C82.8248 21.182 82.2368 21.0163 81.7048 20.685C81.1775 20.3537 80.7552 19.9103 80.4378 19.355C80.1252 18.795 79.9688 18.1767 79.9688 17.5C79.9688 16.9867 80.0598 16.5083 80.2418 16.065C80.4238 15.617 80.6735 15.225 80.9908 14.889C81.3128 14.5483 81.6862 14.2823 82.1108 14.091C82.5355 13.8997 82.9882 13.804 83.4688 13.804C84.1128 13.804 84.6985 13.9697 85.2258 14.301C85.7578 14.6323 86.1802 15.078 86.4928 15.638C86.8102 16.198 86.9688 16.8187 86.9688 17.5C86.9688 18.0087 86.8778 18.4847 86.6958 18.928C86.5138 19.3713 86.2618 19.7633 85.9398 20.104C85.6225 20.44 85.2515 20.7037 84.8268 20.895C84.4068 21.0863 83.9542 21.182 83.4688 21.182ZM83.4688 20.006C83.9075 20.006 84.3018 19.8917 84.6518 19.663C85.0065 19.4297 85.2842 19.124 85.4848 18.746C85.6902 18.3633 85.7928 17.948 85.7928 17.5C85.7928 17.0427 85.6878 16.6227 85.4778 16.24C85.2725 15.8573 84.9948 15.5517 84.6448 15.323C84.2948 15.0943 83.9028 14.98 83.4688 14.98C83.0302 14.98 82.6358 15.0967 82.2858 15.33C81.9358 15.5587 81.6582 15.8643 81.4528 16.247C81.2475 16.6297 81.1448 17.0473 81.1448 17.5C81.1448 17.9667 81.2498 18.3913 81.4598 18.774C81.6698 19.152 81.9522 19.453 82.3068 19.677C82.6615 19.8963 83.0488 20.006 83.4688 20.006ZM91.1661 21.182C90.5221 21.182 89.9341 21.0163 89.4021 20.685C88.8748 20.3537 88.4524 19.9103 88.1351 19.355C87.8224 18.795 87.6661 18.1767 87.6661 17.5C87.6661 16.9867 87.7571 16.5083 87.9391 16.065C88.1211 15.617 88.3708 15.225 88.6881 14.889C89.0101 14.5483 89.3834 14.2823 89.8081 14.091C90.2328 13.8997 90.6854 13.804 91.1661 13.804C91.8101 13.804 92.3958 13.9697 92.9231 14.301C93.4551 14.6323 93.8774 15.078 94.1901 15.638C94.5074 16.198 94.6661 16.8187 94.6661 17.5C94.6661 18.0087 94.5751 18.4847 94.3931 18.928C94.2111 19.3713 93.9591 19.7633 93.6371 20.104C93.3198 20.44 92.9488 20.7037 92.5241 20.895C92.1041 21.0863 91.6514 21.182 91.1661 21.182ZM91.1661 20.006C91.6048 20.006 91.9991 19.8917 92.3491 19.663C92.7038 19.4297 92.9814 19.124 93.1821 18.746C93.3874 18.3633 93.4901 17.948 93.4901 17.5C93.4901 17.0427 93.3851 16.6227 93.1751 16.24C92.9698 15.8573 92.6921 15.5517 92.3421 15.323C91.9921 15.0943 91.6001 14.98 91.1661 14.98C90.7274 14.98 90.3331 15.0967 89.9831 15.33C89.6331 15.5587 89.3554 15.8643 89.1501 16.247C88.9448 16.6297 88.8421 17.0473 88.8421 17.5C88.8421 17.9667 88.9471 18.3913 89.1571 18.774C89.3671 19.152 89.6494 19.453 90.0041 19.677C90.3588 19.8963 90.7461 20.006 91.1661 20.006ZM95.8244 21V14H97.0004V14.875C97.2477 14.5483 97.558 14.2893 97.9314 14.098C98.3094 13.902 98.72 13.804 99.1634 13.804C99.6814 13.804 100.155 13.93 100.584 14.182C101.014 14.434 101.352 14.7677 101.599 15.183C101.847 14.7677 102.183 14.434 102.607 14.182C103.037 13.93 103.508 13.804 104.021 13.804C104.549 13.804 105.027 13.9323 105.456 14.189C105.886 14.441 106.226 14.7817 106.478 15.211C106.735 15.6403 106.863 16.1187 106.863 16.646V21H105.687V16.926C105.687 16.5807 105.603 16.261 105.435 15.967C105.267 15.673 105.041 15.4373 104.756 15.26C104.472 15.0827 104.157 14.994 103.811 14.994C103.466 14.994 103.151 15.078 102.866 15.246C102.582 15.4093 102.355 15.638 102.187 15.932C102.019 16.2213 101.935 16.5527 101.935 16.926V21H100.759V16.926C100.759 16.5527 100.675 16.2213 100.507 15.932C100.339 15.638 100.111 15.4093 99.8214 15.246C99.5367 15.078 99.2217 14.994 98.8764 14.994C98.5357 14.994 98.2207 15.0827 97.9314 15.26C97.6467 15.4373 97.4204 15.673 97.2524 15.967C97.0844 16.261 97.0004 16.5807 97.0004 16.926V21H95.8244Z" fill="white"/>
<defs>
<clipPath id="clip0_139_6664">
<rect width="20" height="20" fill="white" transform="translate(14 6.5)"/>
</clipPath>
<clipPath id="clip1_139_6664">
<rect width="22" height="17" fill="white" transform="translate(13 8.5)"/>
</clipPath>
</defs>
</svg>
