<svg width="78" height="33" viewBox="0 0 78 33" fill="none" xmlns="http://www.w3.org/2000/svg">
<rect x="0.5" y="0.5" width="77" height="32" rx="16" fill="#1A1A1A"/>
<rect x="0.5" y="0.5" width="77" height="32" rx="16" stroke="#262626"/>
<path fill-rule="evenodd" clip-rule="evenodd" d="M18 23V10H17.75C17.3358 10 17 9.66421 17 9.25C17 8.83579 17.3358 8.5 17.75 8.5H30.25C30.6642 8.5 31 8.83579 31 9.25C31 9.66421 30.6642 10 30.25 10H30V23H30.25C30.6642 23 31 23.3358 31 23.75C31 24.1642 30.6642 24.5 30.25 24.5H26.75C26.3358 24.5 26 24.1642 26 23.75V21.25C26 20.8358 25.6642 20.5 25.25 20.5H22.75C22.3358 20.5 22 20.8358 22 21.25V23.75C22 24.1642 21.6642 24.5 21.25 24.5H17.75C17.3358 24.5 17 24.1642 17 23.75C17 23.3358 17.3358 23 17.75 23H18ZM21 12C21 11.7239 21.2239 11.5 21.5 11.5H22.5C22.7761 11.5 23 11.7239 23 12V13C23 13.2761 22.7761 13.5 22.5 13.5H21.5C21.2239 13.5 21 13.2761 21 13V12ZM21.5 15.5C21.2239 15.5 21 15.7239 21 16V17C21 17.2761 21.2239 17.5 21.5 17.5H22.5C22.7761 17.5 23 17.2761 23 17V16C23 15.7239 22.7761 15.5 22.5 15.5H21.5ZM25 12C25 11.7239 25.2239 11.5 25.5 11.5H26.5C26.7761 11.5 27 11.7239 27 12V13C27 13.2761 26.7761 13.5 26.5 13.5H25.5C25.2239 13.5 25 13.2761 25 13V12ZM25.5 15.5C25.2239 15.5 25 15.7239 25 16V17C25 17.2761 25.2239 17.5 25.5 17.5H26.5C26.7761 17.5 27 17.2761 27 17V16C27 15.7239 26.7761 15.5 26.5 15.5H25.5Z" fill="white"/>
<path d="M41.948 21L38.392 11.2H39.638L42.676 19.565L45.721 11.2H46.96L43.404 21H41.948ZM47.6994 14H48.8754V21H47.6994V14ZM48.3014 12.859C48.1147 12.859 47.9584 12.7983 47.8324 12.677C47.7064 12.5557 47.6434 12.404 47.6434 12.222C47.6434 12.04 47.7064 11.8883 47.8324 11.767C47.9584 11.6457 48.1124 11.585 48.2944 11.585C48.4764 11.585 48.6304 11.6457 48.7564 11.767C48.8824 11.8883 48.9454 12.04 48.9454 12.222C48.9454 12.404 48.8824 12.5557 48.7564 12.677C48.635 12.7983 48.4834 12.859 48.3014 12.859ZM50.5978 21V10.5H51.7738V21H50.5978ZM53.4552 21V10.5H54.6312V21H53.4552ZM61.8723 14H63.0483V21H61.8723L61.8233 19.817C61.604 20.223 61.3006 20.552 60.9133 20.804C60.5306 21.056 60.0733 21.182 59.5413 21.182C59.028 21.182 58.5473 21.0863 58.0993 20.895C57.6513 20.699 57.2546 20.4307 56.9093 20.09C56.5686 19.7447 56.3026 19.348 56.1113 18.9C55.92 18.452 55.8243 17.969 55.8243 17.451C55.8243 16.9517 55.9176 16.4803 56.1043 16.037C56.291 15.5937 56.55 15.2063 56.8813 14.875C57.2173 14.539 57.6046 14.2777 58.0433 14.091C58.482 13.8997 58.9533 13.804 59.4573 13.804C60.008 13.804 60.491 13.9347 60.9063 14.196C61.3216 14.4527 61.6576 14.7863 61.9143 15.197L61.8723 14ZM59.5203 20.041C59.9823 20.041 60.3813 19.929 60.7173 19.705C61.058 19.4763 61.3193 19.1683 61.5013 18.781C61.688 18.3937 61.7813 17.9667 61.7813 17.5C61.7813 17.024 61.688 16.5947 61.5013 16.212C61.3146 15.8247 61.051 15.519 60.7103 15.295C60.3743 15.0663 59.9776 14.952 59.5203 14.952C59.0583 14.952 58.6383 15.0663 58.2603 15.295C57.8823 15.5237 57.5813 15.8317 57.3573 16.219C57.138 16.6017 57.0283 17.0287 57.0283 17.5C57.0283 17.9713 57.1426 18.4007 57.3713 18.788C57.6 19.1707 57.9033 19.4763 58.2813 19.705C58.6593 19.929 59.0723 20.041 59.5203 20.041Z" fill="white"/>
</svg>
