<svg width="126" height="33" viewBox="0 0 126 33" fill="none" xmlns="http://www.w3.org/2000/svg">
<rect x="0.5" y="0.5" width="125" height="32" rx="16" fill="#1A1A1A"/>
<rect x="0.5" y="0.5" width="125" height="32" rx="16" stroke="#262626"/>
<g clip-path="url(#clip0_139_8319)">
<g clip-path="url(#clip1_139_8319)">
<path d="M14.2695 20.2616H24.11V22.0697H30.2615V20.2655H32.7054C32.8637 22.4158 32.8761 24.3304 30.6707 25.7897C30.6437 25.8075 30.6221 25.8318 30.5623 25.885C30.8335 26.1103 31.1009 26.3329 31.3655 26.5529C31.0082 26.8945 30.7212 27.169 30.3922 27.4842C30.1019 27.1848 29.7879 26.8373 29.4458 26.5207C29.3453 26.4275 29.1673 26.3894 29.0215 26.3802C28.7831 26.3657 28.5414 26.4045 28.301 26.4052C25.1057 26.4071 21.9105 26.4065 18.7146 26.4065C18.5615 26.4065 18.398 26.436 18.2568 26.3933C17.8305 26.2653 17.5599 26.4629 17.3064 26.7684C17.0903 27.0284 16.844 27.2629 16.6188 27.5007C16.3147 27.1808 16.0395 26.8918 15.7347 26.5707C15.939 26.39 16.1984 26.1602 16.49 25.9014C16.2891 25.7576 16.1387 25.6577 15.9961 25.5474C14.9282 24.7244 14.3509 23.6329 14.2754 22.2924C14.2379 21.6284 14.2688 20.9604 14.2688 20.2616H14.2695Z" fill="white"/>
<path d="M14.2755 15.2871C14.2703 15.1682 14.2611 15.0612 14.2611 14.9541C14.2604 13.2136 14.2585 11.4738 14.2611 9.73333C14.2637 7.82078 15.5911 6.48619 17.501 6.49998C18.142 6.50458 18.8028 6.49145 19.4188 6.63659C20.5117 6.89471 21.2 7.65264 21.5323 8.72057C21.5967 8.92811 21.6801 9.0286 21.908 9.09034C23.194 9.43909 24.0964 10.641 24.1128 11.9822C24.1155 12.1982 24.1128 12.4143 24.1128 12.6488H18.0258C17.7355 11.1139 18.5696 9.52973 20.3134 9.03517C20.1557 8.35014 19.4812 7.77217 18.7732 7.74722C18.2379 7.72817 17.7007 7.7262 17.1654 7.74722C16.2426 7.78334 15.5004 8.63059 15.4965 9.64663C15.4899 11.3976 15.4945 13.1493 15.4945 14.9002C15.4945 15.0198 15.4945 15.1393 15.4945 15.2864H14.2742L14.2755 15.2871Z" fill="white"/>
<path d="M24.0926 19.0327C23.9639 19.0327 23.8673 19.0327 23.7708 19.0327C20.6432 19.0327 17.5149 19.0334 14.3873 19.0321C13.7141 19.0321 13.2301 18.7135 13.0599 18.1697C12.8038 17.3514 13.3837 16.5632 14.2678 16.5514C15.2083 16.5389 16.1488 16.5481 17.0893 16.5481C19.2987 16.5481 21.5075 16.5481 23.7169 16.5481C23.8351 16.5481 23.9534 16.5481 24.0926 16.5481V19.0321V19.0327Z" fill="white"/>
<path d="M29.0237 20.8711H25.3634C25.3575 20.7555 25.3477 20.6504 25.3477 20.5453C25.3464 19.2771 25.3464 18.0082 25.3477 16.7399C25.3483 15.8224 25.8494 15.318 26.763 15.3141C27.1019 15.3128 27.4408 15.3055 27.7797 15.316C28.5409 15.3403 29.0381 15.852 29.0401 16.6152C29.044 17.9386 29.0414 19.2613 29.0401 20.5848C29.0401 20.6708 29.0309 20.7562 29.0237 20.8711Z" fill="white"/>
<path d="M30.2832 19.0209V16.5482C30.8782 16.5482 31.4648 16.5462 32.0506 16.5488C32.356 16.5501 32.668 16.5252 32.9668 16.5744C33.619 16.6821 34.0433 17.2161 34.0164 17.8394C33.9901 18.4509 33.5389 18.9756 32.8985 19.0091C32.0394 19.0544 31.1764 19.0203 30.2839 19.0203L30.2832 19.0209Z" fill="white"/>
</g>
</g>
<path d="M41.472 21.182C40.8793 21.182 40.352 21.049 39.89 20.783C39.4327 20.5123 39.0733 20.153 38.812 19.705C38.5507 19.2523 38.42 18.7507 38.42 18.2H39.596C39.596 18.5313 39.673 18.8347 39.827 19.11C39.981 19.3807 40.198 19.5977 40.478 19.761C40.758 19.9243 41.0893 20.006 41.472 20.006C41.8033 20.006 42.1113 19.9243 42.396 19.761C42.6853 19.5977 42.9187 19.3807 43.096 19.11C43.2733 18.8347 43.362 18.5313 43.362 18.2C43.362 17.7847 43.2547 17.4393 43.04 17.164C42.83 16.884 42.536 16.6763 42.158 16.541C41.7847 16.401 41.3577 16.331 40.877 16.331V15.386C41.5397 15.386 42.0693 15.2483 42.466 14.973C42.8673 14.6977 43.068 14.2917 43.068 13.755C43.068 13.4703 42.991 13.209 42.837 12.971C42.683 12.733 42.48 12.544 42.228 12.404C41.9807 12.2593 41.7147 12.187 41.43 12.187C41.1407 12.187 40.863 12.2593 40.597 12.404C40.331 12.544 40.114 12.733 39.946 12.971C39.778 13.209 39.694 13.4703 39.694 13.755H38.518C38.518 13.377 38.595 13.0223 38.749 12.691C38.9077 12.3597 39.1223 12.068 39.393 11.816C39.6683 11.564 39.9787 11.368 40.324 11.228C40.6693 11.0833 41.0333 11.011 41.416 11.011C41.9153 11.011 42.3797 11.1347 42.809 11.382C43.2383 11.6293 43.5837 11.9607 43.845 12.376C44.111 12.7913 44.244 13.251 44.244 13.755C44.244 14.2077 44.1297 14.6253 43.901 15.008C43.6723 15.3907 43.362 15.659 42.97 15.813C43.3107 15.9297 43.5977 16.1117 43.831 16.359C44.0643 16.6017 44.2393 16.8817 44.356 17.199C44.4773 17.5163 44.538 17.85 44.538 18.2C44.538 18.746 44.3957 19.2453 44.111 19.698C43.831 20.1507 43.4577 20.5123 42.991 20.783C42.529 21.049 42.0227 21.182 41.472 21.182ZM45.799 16.212H50.279V17.388H45.799V16.212ZM51.965 21V11.2H55.346C55.8313 11.2 56.2723 11.3003 56.669 11.501C57.0703 11.697 57.3877 11.984 57.621 12.362C57.8543 12.74 57.971 13.1927 57.971 13.72C57.971 14.0047 57.922 14.28 57.824 14.546C57.7307 14.8073 57.6 15.0337 57.432 15.225C57.2687 15.4117 57.082 15.5377 56.872 15.603C57.166 15.6777 57.4157 15.8107 57.621 16.002C57.8263 16.1887 57.992 16.408 58.118 16.66C58.2487 16.912 58.342 17.1757 58.398 17.451C58.454 17.7263 58.482 17.9923 58.482 18.249C58.482 18.7903 58.3583 19.2687 58.111 19.684C57.8683 20.0947 57.5417 20.4167 57.131 20.65C56.7203 20.8833 56.2677 21 55.773 21H51.965ZM53.141 19.964H55.668C55.99 19.964 56.2817 19.8823 56.543 19.719C56.809 19.551 57.0213 19.3223 57.18 19.033C57.3387 18.7437 57.418 18.417 57.418 18.053C57.418 17.731 57.3387 17.4277 57.18 17.143C57.0213 16.8537 56.809 16.6203 56.543 16.443C56.2817 16.2657 55.99 16.177 55.668 16.177H53.141V19.964ZM53.141 15.162H55.234C55.6633 15.162 56.0297 15.036 56.333 14.784C56.641 14.5273 56.795 14.1703 56.795 13.713C56.795 13.2183 56.641 12.8497 56.333 12.607C56.0297 12.3597 55.6633 12.236 55.234 12.236H53.141V15.162ZM65.2082 14H66.3842V21H65.2082L65.1592 19.817C64.9399 20.223 64.6366 20.552 64.2492 20.804C63.8666 21.056 63.4092 21.182 62.8772 21.182C62.3639 21.182 61.8832 21.0863 61.4352 20.895C60.9872 20.699 60.5906 20.4307 60.2452 20.09C59.9046 19.7447 59.6386 19.348 59.4472 18.9C59.2559 18.452 59.1602 17.969 59.1602 17.451C59.1602 16.9517 59.2536 16.4803 59.4402 16.037C59.6269 15.5937 59.8859 15.2063 60.2172 14.875C60.5532 14.539 60.9406 14.2777 61.3792 14.091C61.8179 13.8997 62.2892 13.804 62.7932 13.804C63.3439 13.804 63.8269 13.9347 64.2422 14.196C64.6576 14.4527 64.9936 14.7863 65.2502 15.197L65.2082 14ZM62.8562 20.041C63.3182 20.041 63.7172 19.929 64.0532 19.705C64.3939 19.4763 64.6552 19.1683 64.8372 18.781C65.0239 18.3937 65.1172 17.9667 65.1172 17.5C65.1172 17.024 65.0239 16.5947 64.8372 16.212C64.6506 15.8247 64.3869 15.519 64.0462 15.295C63.7102 15.0663 63.3136 14.952 62.8562 14.952C62.3942 14.952 61.9742 15.0663 61.5962 15.295C61.2182 15.5237 60.9172 15.8317 60.6932 16.219C60.4739 16.6017 60.3642 17.0287 60.3642 17.5C60.3642 17.9713 60.4786 18.4007 60.7072 18.788C60.9359 19.1707 61.2392 19.4763 61.6172 19.705C61.9952 19.929 62.4082 20.041 62.8562 20.041ZM71.4094 15.176H69.8204L69.8134 21H68.6374L68.6444 15.176H67.4404V14H68.6444L68.6374 11.802H69.8134L69.8204 14H71.4094V15.176ZM78.8522 16.646V21H77.6762V16.905C77.6762 16.5503 77.5899 16.2283 77.4172 15.939C77.2446 15.6497 77.0136 15.421 76.7242 15.253C76.4349 15.0803 76.1129 14.994 75.7582 14.994C75.4082 14.994 75.0862 15.0803 74.7922 15.253C74.5029 15.421 74.2719 15.6497 74.0992 15.939C73.9266 16.2283 73.8402 16.5503 73.8402 16.905V21H72.6642V10.5H73.8402V14.875C74.0876 14.5483 74.4002 14.2893 74.7782 14.098C75.1562 13.902 75.5669 13.804 76.0102 13.804C76.5329 13.804 77.0089 13.9323 77.4382 14.189C77.8722 14.441 78.2152 14.7817 78.4672 15.211C78.7239 15.6403 78.8522 16.1187 78.8522 16.646ZM80.2521 21V14H81.4281V14.875C81.6754 14.5483 81.9881 14.2893 82.3661 14.098C82.7441 13.902 83.1548 13.804 83.5981 13.804C83.8688 13.804 84.1301 13.839 84.3821 13.909L83.9061 15.085C83.7148 15.0243 83.5281 14.994 83.3461 14.994C82.9961 14.994 82.6741 15.0803 82.3801 15.253C82.0908 15.421 81.8598 15.6497 81.6871 15.939C81.5144 16.2283 81.4281 16.5503 81.4281 16.905V21H80.2521ZM87.9669 21.182C87.3229 21.182 86.7349 21.0163 86.2029 20.685C85.6755 20.3537 85.2532 19.9103 84.9359 19.355C84.6232 18.795 84.4669 18.1767 84.4669 17.5C84.4669 16.9867 84.5579 16.5083 84.7399 16.065C84.9219 15.617 85.1715 15.225 85.4889 14.889C85.8109 14.5483 86.1842 14.2823 86.6089 14.091C87.0335 13.8997 87.4862 13.804 87.9669 13.804C88.6109 13.804 89.1965 13.9697 89.7239 14.301C90.2559 14.6323 90.6782 15.078 90.9909 15.638C91.3082 16.198 91.4669 16.8187 91.4669 17.5C91.4669 18.0087 91.3759 18.4847 91.1939 18.928C91.0119 19.3713 90.7599 19.7633 90.4379 20.104C90.1205 20.44 89.7495 20.7037 89.3249 20.895C88.9049 21.0863 88.4522 21.182 87.9669 21.182ZM87.9669 20.006C88.4055 20.006 88.7999 19.8917 89.1499 19.663C89.5045 19.4297 89.7822 19.124 89.9829 18.746C90.1882 18.3633 90.2909 17.948 90.2909 17.5C90.2909 17.0427 90.1859 16.6227 89.9759 16.24C89.7705 15.8573 89.4929 15.5517 89.1429 15.323C88.7929 15.0943 88.4009 14.98 87.9669 14.98C87.5282 14.98 87.1339 15.0967 86.7839 15.33C86.4339 15.5587 86.1562 15.8643 85.9509 16.247C85.7455 16.6297 85.6429 17.0473 85.6429 17.5C85.6429 17.9667 85.7479 18.3913 85.9579 18.774C86.1679 19.152 86.4502 19.453 86.8049 19.677C87.1595 19.8963 87.5469 20.006 87.9669 20.006ZM95.6641 21.182C95.0201 21.182 94.4321 21.0163 93.9001 20.685C93.3728 20.3537 92.9505 19.9103 92.6331 19.355C92.3205 18.795 92.1641 18.1767 92.1641 17.5C92.1641 16.9867 92.2551 16.5083 92.4371 16.065C92.6191 15.617 92.8688 15.225 93.1861 14.889C93.5081 14.5483 93.8815 14.2823 94.3061 14.091C94.7308 13.8997 95.1835 13.804 95.6641 13.804C96.3081 13.804 96.8938 13.9697 97.4211 14.301C97.9531 14.6323 98.3755 15.078 98.6881 15.638C99.0055 16.198 99.1641 16.8187 99.1641 17.5C99.1641 18.0087 99.0731 18.4847 98.8911 18.928C98.7091 19.3713 98.4571 19.7633 98.1351 20.104C97.8178 20.44 97.4468 20.7037 97.0221 20.895C96.6021 21.0863 96.1495 21.182 95.6641 21.182ZM95.6641 20.006C96.1028 20.006 96.4971 19.8917 96.8471 19.663C97.2018 19.4297 97.4795 19.124 97.6801 18.746C97.8855 18.3633 97.9881 17.948 97.9881 17.5C97.9881 17.0427 97.8831 16.6227 97.6731 16.24C97.4678 15.8573 97.1901 15.5517 96.8401 15.323C96.4901 15.0943 96.0981 14.98 95.6641 14.98C95.2255 14.98 94.8311 15.0967 94.4811 15.33C94.1311 15.5587 93.8535 15.8643 93.6481 16.247C93.4428 16.6297 93.3401 17.0473 93.3401 17.5C93.3401 17.9667 93.4451 18.3913 93.6551 18.774C93.8651 19.152 94.1475 19.453 94.5021 19.677C94.8568 19.8963 95.2441 20.006 95.6641 20.006ZM100.322 21V14H101.498V14.875C101.746 14.5483 102.056 14.2893 102.429 14.098C102.807 13.902 103.218 13.804 103.661 13.804C104.179 13.804 104.653 13.93 105.082 14.182C105.512 14.434 105.85 14.7677 106.097 15.183C106.345 14.7677 106.681 14.434 107.105 14.182C107.535 13.93 108.006 13.804 108.519 13.804C109.047 13.804 109.525 13.9323 109.954 14.189C110.384 14.441 110.724 14.7817 110.976 15.211C111.233 15.6403 111.361 16.1187 111.361 16.646V21H110.185V16.926C110.185 16.5807 110.101 16.261 109.933 15.967C109.765 15.673 109.539 15.4373 109.254 15.26C108.97 15.0827 108.655 14.994 108.309 14.994C107.964 14.994 107.649 15.078 107.364 15.246C107.08 15.4093 106.853 15.638 106.685 15.932C106.517 16.2213 106.433 16.5527 106.433 16.926V21H105.257V16.926C105.257 16.5527 105.173 16.2213 105.005 15.932C104.837 15.638 104.609 15.4093 104.319 15.246C104.035 15.078 103.72 14.994 103.374 14.994C103.034 14.994 102.719 15.0827 102.429 15.26C102.145 15.4373 101.918 15.673 101.75 15.967C101.582 16.261 101.498 16.5807 101.498 16.926V21H100.322Z" fill="white"/>
<defs>
<clipPath id="clip0_139_8319">
<rect width="20" height="20" fill="white" transform="translate(14 6.5)"/>
</clipPath>
<clipPath id="clip1_139_8319">
<rect width="21.0171" height="21" fill="white" transform="translate(13 6.5)"/>
</clipPath>
</defs>
</svg>
