<svg width="307" height="27" viewBox="0 0 307 27" fill="none" xmlns="http://www.w3.org/2000/svg">
<path d="M3.75 15L14.25 3.75L12 12H20.25L9.75 23.25L12 15H3.75Z" stroke="#999999" stroke-width="1.5" stroke-linecap="round" stroke-linejoin="round"/>
<path d="M36.912 20.234C36.06 20.234 35.259 20.066 34.509 19.73C33.759 19.388 33.099 18.92 32.529 18.326C31.965 17.726 31.521 17.03 31.197 16.238C30.879 15.446 30.72 14.6 30.72 13.7C30.72 12.8 30.879 11.954 31.197 11.162C31.521 10.37 31.965 9.677 32.529 9.083C33.099 8.483 33.759 8.015 34.509 7.679C35.259 7.337 36.06 7.166 36.912 7.166C37.932 7.166 38.871 7.403 39.729 7.877C40.587 8.351 41.298 8.981 41.862 9.767L40.521 10.487C40.101 9.935 39.57 9.497 38.928 9.173C38.292 8.843 37.62 8.678 36.912 8.678C36.258 8.678 35.646 8.81 35.076 9.074C34.512 9.338 34.017 9.701 33.591 10.163C33.165 10.625 32.832 11.159 32.592 11.765C32.352 12.371 32.232 13.016 32.232 13.7C32.232 14.39 32.352 15.038 32.592 15.644C32.838 16.25 33.174 16.784 33.6 17.246C34.032 17.708 34.53 18.071 35.094 18.335C35.664 18.593 36.27 18.722 36.912 18.722C37.644 18.722 38.322 18.557 38.946 18.227C39.576 17.891 40.101 17.453 40.521 16.913L41.862 17.642C41.298 18.428 40.587 19.058 39.729 19.532C38.871 20 37.932 20.234 36.912 20.234ZM50.4273 11H51.9393V20H50.4273L50.3643 18.479C50.0823 19.001 49.6923 19.424 49.1943 19.748C48.7023 20.072 48.1143 20.234 47.4303 20.234C46.7703 20.234 46.1523 20.111 45.5763 19.865C45.0003 19.613 44.4903 19.268 44.0463 18.83C43.6083 18.386 43.2663 17.876 43.0203 17.3C42.7743 16.724 42.6513 16.103 42.6513 15.437C42.6513 14.795 42.7713 14.189 43.0113 13.619C43.2513 13.049 43.5843 12.551 44.0103 12.125C44.4423 11.693 44.9403 11.357 45.5043 11.117C46.0683 10.871 46.6743 10.748 47.3223 10.748C48.0303 10.748 48.6513 10.916 49.1853 11.252C49.7193 11.582 50.1513 12.011 50.4813 12.539L50.4273 11ZM47.4033 18.767C47.9973 18.767 48.5103 18.623 48.9423 18.335C49.3803 18.041 49.7163 17.645 49.9503 17.147C50.1903 16.649 50.3103 16.1 50.3103 15.5C50.3103 14.888 50.1903 14.336 49.9503 13.844C49.7103 13.346 49.3713 12.953 48.9333 12.665C48.5013 12.371 47.9913 12.224 47.4033 12.224C46.8093 12.224 46.2693 12.371 45.7833 12.665C45.2973 12.959 44.9103 13.355 44.6223 13.853C44.3403 14.345 44.1993 14.894 44.1993 15.5C44.1993 16.106 44.3463 16.658 44.6403 17.156C44.9343 17.648 45.3243 18.041 45.8103 18.335C46.2963 18.623 46.8273 18.767 47.4033 18.767ZM58.4002 12.512H56.3572L56.3482 20H54.8362L54.8452 12.512H53.2972V11H54.8452L54.8362 8.174H56.3482L56.3572 11H58.4002V12.512ZM63.7451 20.234C62.9171 20.234 62.1611 20.021 61.4771 19.595C60.7991 19.169 60.2561 18.599 59.8481 17.885C59.4461 17.165 59.2451 16.37 59.2451 15.5C59.2451 14.84 59.3621 14.225 59.5961 13.655C59.8301 13.079 60.1511 12.575 60.5591 12.143C60.9731 11.705 61.4531 11.363 61.9991 11.117C62.5451 10.871 63.1271 10.748 63.7451 10.748C64.4231 10.748 65.0441 10.886 65.6081 11.162C66.1781 11.432 66.6641 11.81 67.0661 12.296C67.4741 12.782 67.7771 13.346 67.9751 13.988C68.1791 14.63 68.2541 15.317 68.2001 16.049H60.8561C60.9281 16.559 61.0961 17.015 61.3601 17.417C61.6241 17.813 61.9601 18.128 62.3681 18.362C62.7821 18.596 63.2411 18.716 63.7451 18.722C64.2851 18.722 64.7741 18.584 65.2121 18.308C65.6501 18.026 66.0041 17.642 66.2741 17.156L67.8131 17.516C67.4531 18.314 66.9101 18.968 66.1841 19.478C65.4581 19.982 64.6451 20.234 63.7451 20.234ZM60.8111 14.861H66.6791C66.6311 14.357 66.4691 13.898 66.1931 13.484C65.9171 13.064 65.5661 12.728 65.1401 12.476C64.7141 12.224 64.2491 12.098 63.7451 12.098C63.2411 12.098 62.7791 12.221 62.3591 12.467C61.9391 12.713 61.5911 13.046 61.3151 13.466C61.0451 13.88 60.8771 14.345 60.8111 14.861ZM76.693 11H78.205V20.288C78.205 20.882 78.076 21.434 77.818 21.944C77.566 22.46 77.224 22.907 76.792 23.285C76.36 23.669 75.868 23.966 75.316 24.176C74.764 24.392 74.188 24.5 73.588 24.5C72.964 24.5 72.361 24.359 71.779 24.077C71.197 23.801 70.687 23.429 70.249 22.961C69.817 22.499 69.505 21.98 69.313 21.404L70.699 20.774C70.813 21.188 71.017 21.56 71.311 21.89C71.611 22.226 71.959 22.49 72.355 22.682C72.757 22.88 73.168 22.979 73.588 22.979C73.984 22.979 74.365 22.91 74.731 22.772C75.103 22.634 75.436 22.442 75.73 22.196C76.03 21.956 76.264 21.671 76.432 21.341C76.606 21.017 76.693 20.666 76.693 20.288V18.497C76.387 19.013 75.982 19.433 75.478 19.757C74.98 20.075 74.398 20.234 73.732 20.234C73.096 20.234 72.499 20.111 71.941 19.865C71.383 19.619 70.894 19.28 70.474 18.848C70.054 18.41 69.724 17.906 69.484 17.336C69.244 16.766 69.124 16.154 69.124 15.5C69.124 14.846 69.244 14.234 69.484 13.664C69.724 13.088 70.054 12.584 70.474 12.152C70.894 11.714 71.383 11.372 71.941 11.126C72.499 10.88 73.096 10.757 73.732 10.757C74.398 10.757 74.98 10.916 75.478 11.234C75.982 11.552 76.387 11.972 76.693 12.494V11ZM73.741 18.767C74.323 18.767 74.827 18.617 75.253 18.317C75.685 18.017 76.018 17.618 76.252 17.12C76.486 16.622 76.603 16.082 76.603 15.5C76.603 14.9 76.483 14.354 76.243 13.862C76.009 13.364 75.676 12.968 75.244 12.674C74.818 12.374 74.317 12.224 73.741 12.224C73.177 12.224 72.661 12.371 72.193 12.665C71.725 12.959 71.353 13.355 71.077 13.853C70.807 14.345 70.672 14.894 70.672 15.5C70.672 16.106 70.81 16.658 71.086 17.156C71.368 17.648 71.74 18.041 72.202 18.335C72.67 18.623 73.183 18.767 73.741 18.767ZM84.206 20.234C83.378 20.234 82.622 20.021 81.938 19.595C81.26 19.169 80.717 18.599 80.309 17.885C79.907 17.165 79.706 16.37 79.706 15.5C79.706 14.84 79.823 14.225 80.057 13.655C80.291 13.079 80.612 12.575 81.02 12.143C81.434 11.705 81.914 11.363 82.46 11.117C83.006 10.871 83.588 10.748 84.206 10.748C85.034 10.748 85.787 10.961 86.465 11.387C87.149 11.813 87.692 12.386 88.094 13.106C88.502 13.826 88.706 14.624 88.706 15.5C88.706 16.154 88.589 16.766 88.355 17.336C88.121 17.906 87.797 18.41 87.383 18.848C86.975 19.28 86.498 19.619 85.952 19.865C85.412 20.111 84.83 20.234 84.206 20.234ZM84.206 18.722C84.77 18.722 85.277 18.575 85.727 18.281C86.183 17.981 86.54 17.588 86.798 17.102C87.062 16.61 87.194 16.076 87.194 15.5C87.194 14.912 87.059 14.372 86.789 13.88C86.525 13.388 86.168 12.995 85.718 12.701C85.268 12.407 84.764 12.26 84.206 12.26C83.642 12.26 83.135 12.41 82.685 12.71C82.235 13.004 81.878 13.397 81.614 13.889C81.35 14.381 81.218 14.918 81.218 15.5C81.218 16.1 81.353 16.646 81.623 17.138C81.893 17.624 82.256 18.011 82.712 18.299C83.168 18.581 83.666 18.722 84.206 18.722ZM90.1952 20V11H91.7072V12.125C92.0252 11.705 92.4272 11.372 92.9132 11.126C93.3992 10.874 93.9272 10.748 94.4972 10.748C94.8452 10.748 95.1812 10.793 95.5052 10.883L94.8932 12.395C94.6472 12.317 94.4072 12.278 94.1732 12.278C93.7232 12.278 93.3092 12.389 92.9312 12.611C92.5592 12.827 92.2622 13.121 92.0402 13.493C91.8182 13.865 91.7072 14.279 91.7072 14.735V20H90.1952ZM102.776 11H104.378L99.4553 24.5H97.8533L99.4823 20L96.2513 11H97.9072L100.238 17.921L102.776 11Z" fill="#999999"/>
</svg>
