<svg width="123" height="33" viewBox="0 0 123 33" fill="none" xmlns="http://www.w3.org/2000/svg">
<rect x="0.5" y="0.5" width="122" height="32" rx="16" fill="#1A1A1A"/>
<rect x="0.5" y="0.5" width="122" height="32" rx="16" stroke="#262626"/>
<g clip-path="url(#clip0_139_6639)">
<g clip-path="url(#clip1_139_6639)">
<path d="M24.0119 23.9597C21.0137 23.9597 18.0163 23.9597 15.0181 23.9597C14.7149 23.9597 14.5748 24.0984 14.5748 24.3977C14.5748 24.4752 14.5787 24.5527 14.574 24.6295C14.5677 24.7225 14.5583 24.8155 14.5409 24.9062C14.4764 25.2372 14.1591 25.5023 13.7796 25.4984C13.3985 25.4946 13.0828 25.2116 13.0253 24.8481C13.0119 24.7628 13.0048 24.6752 13.0048 24.5891C13.004 22.8279 12.9922 21.0659 13.0088 19.3046C13.0182 18.2783 13.3977 17.3853 14.1252 16.6419C14.5669 16.1907 15.0921 15.8698 15.6928 15.6651C16.1652 15.5046 16.6534 15.4558 17.151 15.4558C21.7625 15.4574 26.3739 15.4535 30.9854 15.4589C32.3365 15.4605 33.4309 15.9969 34.2419 17.0636C34.6403 17.5884 34.8781 18.1845 34.9592 18.8357C34.9867 19.055 34.9985 19.2783 34.9993 19.5C35.0025 21.2101 35.0017 22.9202 35.0009 24.6302C35.0009 24.8977 34.934 25.1411 34.7104 25.3178C34.4741 25.5046 34.2104 25.5535 33.9293 25.4395C33.66 25.3295 33.49 25.1271 33.4514 24.838C33.4317 24.6922 33.4341 24.5426 33.4301 24.3953C33.4238 24.1574 33.3238 24.0139 33.1239 23.9698C33.0798 23.9597 33.0333 23.9605 32.9876 23.9605C29.9965 23.9605 27.0054 23.9605 24.0135 23.9605L24.0119 23.9597Z" fill="white"/>
<path d="M23.902 8.5C25.8467 8.5 27.7907 8.5 29.7346 8.5C30.3858 8.5 30.9944 8.64341 31.5195 9.03953C32.1951 9.54884 32.5895 10.2194 32.6226 11.0612C32.651 11.7752 32.6384 12.4907 32.6415 13.2054C32.6439 13.6659 32.6415 14.1264 32.6415 14.5868C32.6415 14.6279 32.6391 14.6713 32.6281 14.7109C32.5943 14.8357 32.5258 14.8853 32.3966 14.8612C32.2557 14.8349 32.1195 14.7783 31.9786 14.7628C31.6471 14.7271 31.3148 14.7023 30.9818 14.6853C30.7597 14.6736 30.6913 14.6341 30.6598 14.4194C30.559 13.7388 29.9189 13.1264 29.1 13.1357C28.1867 13.1457 27.2734 13.138 26.3609 13.138C25.6814 13.138 25.1011 13.5364 24.8704 14.1643C24.8373 14.2543 24.8247 14.3519 24.8074 14.4465C24.7751 14.6163 24.7114 14.6798 24.5397 14.6822C24.1799 14.686 23.8193 14.686 23.4595 14.6822C23.2941 14.6806 23.2288 14.6163 23.1989 14.4279C23.1571 14.1636 23.0532 13.9279 22.8831 13.7209C22.5753 13.3457 22.1769 13.1419 21.6856 13.1395C20.7431 13.1349 19.8007 13.1372 18.8575 13.1388C18.0654 13.1395 17.4457 13.7488 17.345 14.4178C17.3127 14.6341 17.2473 14.6721 17.0253 14.686C16.6576 14.7101 16.2899 14.7442 15.923 14.7829C15.8104 14.7946 15.7026 14.8426 15.5908 14.8612C15.4703 14.8806 15.4144 14.8403 15.3805 14.724C15.3672 14.6783 15.3609 14.6295 15.3609 14.5814C15.3601 13.4767 15.3451 12.3721 15.364 11.2674C15.3837 10.1116 15.9262 9.26202 16.9875 8.74806C17.408 8.54574 17.8638 8.5 18.3252 8.5C20.1841 8.5 22.0431 8.5 23.902 8.5Z" fill="white"/>
</g>
</g>
<path d="M38.56 21V19.957C38.9193 19.635 39.323 19.2757 39.771 18.879C40.219 18.4777 40.6647 18.06 41.108 17.626C41.556 17.1873 41.9667 16.7533 42.34 16.324C42.7133 15.8947 43.0143 15.4887 43.243 15.106C43.4717 14.7187 43.586 14.3803 43.586 14.091C43.586 13.7457 43.502 13.4307 43.334 13.146C43.166 12.8567 42.9397 12.6257 42.655 12.453C42.375 12.2803 42.0623 12.194 41.717 12.194C41.3717 12.194 41.0543 12.2803 40.765 12.453C40.4803 12.6257 40.2517 12.8567 40.079 13.146C39.911 13.4307 39.827 13.7457 39.827 14.091H38.651C38.651 13.517 38.791 12.999 39.071 12.537C39.351 12.0703 39.722 11.7017 40.184 11.431C40.646 11.1557 41.157 11.018 41.717 11.018C42.277 11.018 42.7857 11.1557 43.243 11.431C43.705 11.7063 44.0737 12.0773 44.349 12.544C44.6243 13.006 44.762 13.5217 44.762 14.091C44.762 14.4177 44.6827 14.77 44.524 15.148C44.3653 15.5213 44.1483 15.9063 43.873 16.303C43.5977 16.6997 43.285 17.101 42.935 17.507C42.585 17.9083 42.2163 18.305 41.829 18.697C41.4417 19.089 41.0567 19.4647 40.674 19.824H44.888V21H38.56ZM46.5646 16.212H51.0446V17.388H46.5646V16.212ZM52.7306 21V11.2H56.1116C56.597 11.2 57.038 11.3003 57.4346 11.501C57.836 11.697 58.1533 11.984 58.3866 12.362C58.62 12.74 58.7366 13.1927 58.7366 13.72C58.7366 14.0047 58.6876 14.28 58.5896 14.546C58.4963 14.8073 58.3656 15.0337 58.1976 15.225C58.0343 15.4117 57.8476 15.5377 57.6376 15.603C57.9316 15.6777 58.1813 15.8107 58.3866 16.002C58.592 16.1887 58.7576 16.408 58.8836 16.66C59.0143 16.912 59.1076 17.1757 59.1636 17.451C59.2196 17.7263 59.2476 17.9923 59.2476 18.249C59.2476 18.7903 59.124 19.2687 58.8766 19.684C58.634 20.0947 58.3073 20.4167 57.8966 20.65C57.486 20.8833 57.0333 21 56.5386 21H52.7306ZM53.9066 19.964H56.4336C56.7556 19.964 57.0473 19.8823 57.3086 19.719C57.5746 19.551 57.787 19.3223 57.9456 19.033C58.1043 18.7437 58.1836 18.417 58.1836 18.053C58.1836 17.731 58.1043 17.4277 57.9456 17.143C57.787 16.8537 57.5746 16.6203 57.3086 16.443C57.0473 16.2657 56.7556 16.177 56.4336 16.177H53.9066V19.964ZM53.9066 15.162H55.9996C56.429 15.162 56.7953 15.036 57.0986 14.784C57.4066 14.5273 57.5606 14.1703 57.5606 13.713C57.5606 13.2183 57.4066 12.8497 57.0986 12.607C56.7953 12.3597 56.429 12.236 55.9996 12.236H53.9066V15.162ZM63.4259 21.182C62.7819 21.182 62.1939 21.0163 61.6619 20.685C61.1345 20.3537 60.7122 19.9103 60.3949 19.355C60.0822 18.795 59.9259 18.1767 59.9259 17.5C59.9259 16.9867 60.0169 16.5083 60.1989 16.065C60.3809 15.617 60.6305 15.225 60.9479 14.889C61.2699 14.5483 61.6432 14.2823 62.0679 14.091C62.4925 13.8997 62.9452 13.804 63.4259 13.804C63.9532 13.804 64.4362 13.9113 64.8749 14.126C65.3182 14.336 65.6962 14.63 66.0089 15.008C66.3262 15.386 66.5619 15.8247 66.7159 16.324C66.8745 16.8233 66.9329 17.3577 66.8909 17.927H61.1789C61.2349 18.3237 61.3655 18.6783 61.5709 18.991C61.7762 19.299 62.0375 19.544 62.3549 19.726C62.6769 19.908 63.0339 20.0013 63.4259 20.006C63.8459 20.006 64.2262 19.8987 64.5669 19.684C64.9075 19.4647 65.1829 19.166 65.3929 18.788L66.5899 19.068C66.3099 19.6887 65.8875 20.1973 65.3229 20.594C64.7582 20.986 64.1259 21.182 63.4259 21.182ZM61.1439 17.003H65.7079C65.6705 16.611 65.5445 16.254 65.3299 15.932C65.1152 15.6053 64.8422 15.344 64.5109 15.148C64.1795 14.952 63.8179 14.854 63.4259 14.854C63.0339 14.854 62.6745 14.9497 62.3479 15.141C62.0212 15.3323 61.7505 15.5913 61.5359 15.918C61.3259 16.24 61.1952 16.6017 61.1439 17.003ZM73.6645 10.5H74.8405V21H73.6645V19.81C73.4265 20.2207 73.1068 20.552 72.7055 20.804C72.3041 21.056 71.8328 21.182 71.2915 21.182C70.7828 21.182 70.3068 21.0863 69.8635 20.895C69.4201 20.7037 69.0281 20.44 68.6875 20.104C68.3515 19.7633 68.0878 19.3713 67.8965 18.928C67.7051 18.4847 67.6095 18.0087 67.6095 17.5C67.6095 16.9913 67.7051 16.5153 67.8965 16.072C68.0878 15.624 68.3515 15.232 68.6875 14.896C69.0281 14.5553 69.4201 14.2893 69.8635 14.098C70.3068 13.9067 70.7828 13.811 71.2915 13.811C71.8328 13.811 72.3041 13.937 72.7055 14.189C73.1068 14.441 73.4265 14.7723 73.6645 15.183V10.5ZM71.3055 20.041C71.7675 20.041 72.1665 19.929 72.5025 19.705C72.8431 19.4763 73.1045 19.1683 73.2865 18.781C73.4731 18.3937 73.5665 17.9667 73.5665 17.5C73.5665 17.024 73.4731 16.5947 73.2865 16.212C73.0998 15.8247 72.8361 15.519 72.4955 15.295C72.1595 15.0663 71.7628 14.952 71.3055 14.952C70.8435 14.952 70.4235 15.0663 70.0455 15.295C69.6721 15.5237 69.3735 15.8317 69.1495 16.219C68.9255 16.6017 68.8135 17.0287 68.8135 17.5C68.8135 17.9713 68.9278 18.4007 69.1565 18.788C69.3851 19.1707 69.6885 19.4763 70.0665 19.705C70.4445 19.929 70.8575 20.041 71.3055 20.041ZM76.5197 21V14H77.6957V14.875C77.943 14.5483 78.2557 14.2893 78.6337 14.098C79.0117 13.902 79.4224 13.804 79.8657 13.804C80.1364 13.804 80.3977 13.839 80.6497 13.909L80.1737 15.085C79.9824 15.0243 79.7957 14.994 79.6137 14.994C79.2637 14.994 78.9417 15.0803 78.6477 15.253C78.3584 15.421 78.1274 15.6497 77.9547 15.939C77.782 16.2283 77.6957 16.5503 77.6957 16.905V21H76.5197ZM84.2345 21.182C83.5905 21.182 83.0025 21.0163 82.4705 20.685C81.9431 20.3537 81.5208 19.9103 81.2035 19.355C80.8908 18.795 80.7345 18.1767 80.7345 17.5C80.7345 16.9867 80.8255 16.5083 81.0075 16.065C81.1895 15.617 81.4391 15.225 81.7565 14.889C82.0785 14.5483 82.4518 14.2823 82.8765 14.091C83.3011 13.8997 83.7538 13.804 84.2345 13.804C84.8785 13.804 85.4641 13.9697 85.9915 14.301C86.5235 14.6323 86.9458 15.078 87.2585 15.638C87.5758 16.198 87.7345 16.8187 87.7345 17.5C87.7345 18.0087 87.6435 18.4847 87.4615 18.928C87.2795 19.3713 87.0275 19.7633 86.7055 20.104C86.3881 20.44 86.0171 20.7037 85.5925 20.895C85.1725 21.0863 84.7198 21.182 84.2345 21.182ZM84.2345 20.006C84.6731 20.006 85.0675 19.8917 85.4175 19.663C85.7721 19.4297 86.0498 19.124 86.2505 18.746C86.4558 18.3633 86.5585 17.948 86.5585 17.5C86.5585 17.0427 86.4535 16.6227 86.2435 16.24C86.0381 15.8573 85.7605 15.5517 85.4105 15.323C85.0605 15.0943 84.6685 14.98 84.2345 14.98C83.7958 14.98 83.4015 15.0967 83.0515 15.33C82.7015 15.5587 82.4238 15.8643 82.2185 16.247C82.0131 16.6297 81.9105 17.0473 81.9105 17.5C81.9105 17.9667 82.0155 18.3913 82.2255 18.774C82.4355 19.152 82.7178 19.453 83.0725 19.677C83.4271 19.8963 83.8145 20.006 84.2345 20.006ZM91.9317 21.182C91.2877 21.182 90.6997 21.0163 90.1677 20.685C89.6404 20.3537 89.2181 19.9103 88.9007 19.355C88.5881 18.795 88.4317 18.1767 88.4317 17.5C88.4317 16.9867 88.5227 16.5083 88.7047 16.065C88.8867 15.617 89.1364 15.225 89.4537 14.889C89.7757 14.5483 90.1491 14.2823 90.5737 14.091C90.9984 13.8997 91.4511 13.804 91.9317 13.804C92.5757 13.804 93.1614 13.9697 93.6887 14.301C94.2207 14.6323 94.6431 15.078 94.9557 15.638C95.2731 16.198 95.4317 16.8187 95.4317 17.5C95.4317 18.0087 95.3407 18.4847 95.1587 18.928C94.9767 19.3713 94.7247 19.7633 94.4027 20.104C94.0854 20.44 93.7144 20.7037 93.2897 20.895C92.8697 21.0863 92.4171 21.182 91.9317 21.182ZM91.9317 20.006C92.3704 20.006 92.7647 19.8917 93.1147 19.663C93.4694 19.4297 93.7471 19.124 93.9477 18.746C94.1531 18.3633 94.2557 17.948 94.2557 17.5C94.2557 17.0427 94.1507 16.6227 93.9407 16.24C93.7354 15.8573 93.4577 15.5517 93.1077 15.323C92.7577 15.0943 92.3657 14.98 91.9317 14.98C91.4931 14.98 91.0987 15.0967 90.7487 15.33C90.3987 15.5587 90.1211 15.8643 89.9157 16.247C89.7104 16.6297 89.6077 17.0473 89.6077 17.5C89.6077 17.9667 89.7127 18.3913 89.9227 18.774C90.1327 19.152 90.4151 19.453 90.7697 19.677C91.1244 19.8963 91.5117 20.006 91.9317 20.006ZM96.59 21V14H97.766V14.875C98.0133 14.5483 98.3237 14.2893 98.697 14.098C99.075 13.902 99.4857 13.804 99.929 13.804C100.447 13.804 100.921 13.93 101.35 14.182C101.779 14.434 102.118 14.7677 102.365 15.183C102.612 14.7677 102.948 14.434 103.373 14.182C103.802 13.93 104.274 13.804 104.787 13.804C105.314 13.804 105.793 13.9323 106.222 14.189C106.651 14.441 106.992 14.7817 107.244 15.211C107.501 15.6403 107.629 16.1187 107.629 16.646V21H106.453V16.926C106.453 16.5807 106.369 16.261 106.201 15.967C106.033 15.673 105.807 15.4373 105.522 15.26C105.237 15.0827 104.922 14.994 104.577 14.994C104.232 14.994 103.917 15.078 103.632 15.246C103.347 15.4093 103.121 15.638 102.953 15.932C102.785 16.2213 102.701 16.5527 102.701 16.926V21H101.525V16.926C101.525 16.5527 101.441 16.2213 101.273 15.932C101.105 15.638 100.876 15.4093 100.587 15.246C100.302 15.078 99.9873 14.994 99.642 14.994C99.3013 14.994 98.9863 15.0827 98.697 15.26C98.4123 15.4373 98.186 15.673 98.018 15.967C97.85 16.261 97.766 16.5807 97.766 16.926V21H96.59Z" fill="white"/>
<defs>
<clipPath id="clip0_139_6639">
<rect width="20" height="20" fill="white" transform="translate(14 6.5)"/>
</clipPath>
<clipPath id="clip1_139_6639">
<rect width="22" height="17" fill="white" transform="translate(13 8.5)"/>
</clipPath>
</defs>
</svg>
