<svg width="182" height="30" viewBox="0 0 182 30" fill="none" xmlns="http://www.w3.org/2000/svg">
<rect x="0.5" y="0.5" width="29" height="29" rx="14.5" fill="#1A1A1A"/>
<rect x="0.5" y="0.5" width="29" height="29" rx="14.5" stroke="#262626"/>
<path d="M14.1586 7.30996C14.5522 6.69719 15.4478 6.69719 15.8414 7.30996L17.8577 10.4491C17.9931 10.6599 18.2027 10.8122 18.4451 10.8759L22.0537 11.8234C22.7581 12.0084 23.0348 12.8602 22.5737 13.4239L20.2112 16.3115C20.0526 16.5054 19.9725 16.7519 19.9869 17.0021L20.2008 20.7268C20.2426 21.4539 19.518 21.9803 18.8394 21.7159L15.363 20.3615C15.1296 20.2705 14.8704 20.2705 14.637 20.3615L11.1606 21.7159C10.482 21.9803 9.75745 21.4539 9.79921 20.7268L10.0131 17.0021C10.0275 16.7519 9.94744 16.5054 9.78877 16.3115L7.42633 13.4239C6.96518 12.8602 7.24194 12.0084 7.94634 11.8234L11.5549 10.8759C11.7973 10.8122 12.0069 10.6599 12.1423 10.4491L14.1586 7.30996Z" fill="#FFE600"/>
<rect x="38.5" y="0.5" width="29" height="29" rx="14.5" fill="#1A1A1A"/>
<rect x="38.5" y="0.5" width="29" height="29" rx="14.5" stroke="#262626"/>
<path d="M52.1586 7.30996C52.5522 6.69719 53.4478 6.69719 53.8414 7.30996L55.8577 10.4491C55.9931 10.6599 56.2027 10.8122 56.4451 10.8759L60.0537 11.8234C60.7581 12.0084 61.0348 12.8602 60.5737 13.4239L58.2112 16.3115C58.0526 16.5054 57.9725 16.7519 57.9869 17.0021L58.2008 20.7268C58.2426 21.4539 57.518 21.9803 56.8394 21.7159L53.363 20.3615C53.1296 20.2705 52.8704 20.2705 52.637 20.3615L49.1606 21.7159C48.482 21.9803 47.7574 21.4539 47.7992 20.7268L48.0131 17.0021C48.0275 16.7519 47.9474 16.5054 47.7888 16.3115L45.4263 13.4239C44.9652 12.8602 45.2419 12.0084 45.9463 11.8234L49.5549 10.8759C49.7973 10.8122 50.0069 10.6599 50.1423 10.4491L52.1586 7.30996Z" fill="#FFE600"/>
<rect x="76.5" y="0.5" width="29" height="29" rx="14.5" fill="#1A1A1A"/>
<rect x="76.5" y="0.5" width="29" height="29" rx="14.5" stroke="#262626"/>
<path d="M90.1586 7.30996C90.5522 6.69719 91.4478 6.69719 91.8414 7.30996L93.8577 10.4491C93.9931 10.6599 94.2027 10.8122 94.4451 10.8759L98.0537 11.8234C98.7581 12.0084 99.0348 12.8602 98.5737 13.4239L96.2112 16.3115C96.0526 16.5054 95.9725 16.7519 95.9869 17.0021L96.2008 20.7268C96.2426 21.4539 95.518 21.9803 94.8394 21.7159L91.363 20.3615C91.1296 20.2705 90.8704 20.2705 90.637 20.3615L87.1606 21.7159C86.482 21.9803 85.7574 21.4539 85.7992 20.7268L86.0131 17.0021C86.0275 16.7519 85.9474 16.5054 85.7888 16.3115L83.4263 13.4239C82.9652 12.8602 83.2419 12.0084 83.9463 11.8234L87.5549 10.8759C87.7973 10.8122 88.0069 10.6599 88.1423 10.4491L90.1586 7.30996Z" fill="#FFE600"/>
<rect x="114.5" y="0.5" width="29" height="29" rx="14.5" fill="#1A1A1A"/>
<rect x="114.5" y="0.5" width="29" height="29" rx="14.5" stroke="#262626"/>
<path d="M128.159 7.30996C128.552 6.69719 129.448 6.69719 129.841 7.30996L131.858 10.4491C131.993 10.6599 132.203 10.8122 132.445 10.8759L136.054 11.8234C136.758 12.0084 137.035 12.8602 136.574 13.4239L134.211 16.3115C134.053 16.5054 133.972 16.7519 133.987 17.0021L134.201 20.7268C134.243 21.4539 133.518 21.9803 132.839 21.7159L129.363 20.3615C129.13 20.2705 128.87 20.2705 128.637 20.3615L125.161 21.7159C124.482 21.9803 123.757 21.4539 123.799 20.7268L124.013 17.0021C124.028 16.7519 123.947 16.5054 123.789 16.3115L121.426 13.4239C120.965 12.8602 121.242 12.0084 121.946 11.8234L125.555 10.8759C125.797 10.8122 126.007 10.6599 126.142 10.4491L128.159 7.30996Z" fill="#FFE600"/>
<rect x="152.5" y="0.5" width="29" height="29" rx="14.5" fill="#1A1A1A"/>
<rect x="152.5" y="0.5" width="29" height="29" rx="14.5" stroke="#262626"/>
<path d="M166.159 7.30996C166.552 6.69719 167.448 6.69719 167.841 7.30996L169.858 10.4491C169.993 10.6599 170.203 10.8122 170.445 10.8759L174.054 11.8234C174.758 12.0084 175.035 12.8602 174.574 13.4239L172.211 16.3115C172.053 16.5054 171.972 16.7519 171.987 17.0021L172.201 20.7268C172.243 21.4539 171.518 21.9803 170.839 21.7159L167.363 20.3615C167.13 20.2705 166.87 20.2705 166.637 20.3615L163.161 21.7159C162.482 21.9803 161.757 21.4539 161.799 20.7268L162.013 17.0021C162.028 16.7519 161.947 16.5054 161.789 16.3115L159.426 13.4239C158.965 12.8602 159.242 12.0084 159.946 11.8234L163.555 10.8759C163.797 10.8122 164.007 10.6599 164.142 10.4491L166.159 7.30996Z" fill="#FFE600"/>
</svg>
