<svg width="307" height="27" viewBox="0 0 307 27" fill="none" xmlns="http://www.w3.org/2000/svg">
<path d="M3.75 7.5C3.75 6.25736 4.75736 5.25 6 5.25H8.25C9.49264 5.25 10.5 6.25736 10.5 7.5V9.75C10.5 10.9926 9.49264 12 8.25 12H6C4.75736 12 3.75 10.9926 3.75 9.75V7.5Z" stroke="#999999" stroke-width="1.5" stroke-linecap="round" stroke-linejoin="round"/>
<path d="M3.75 17.25C3.75 16.0074 4.75736 15 6 15H8.25C9.49264 15 10.5 16.0074 10.5 17.25V19.5C10.5 20.7426 9.49264 21.75 8.25 21.75H6C4.75736 21.75 3.75 20.7426 3.75 19.5V17.25Z" stroke="#999999" stroke-width="1.5" stroke-linecap="round" stroke-linejoin="round"/>
<path d="M13.5 7.5C13.5 6.25736 14.5074 5.25 15.75 5.25H18C19.2426 5.25 20.25 6.25736 20.25 7.5V9.75C20.25 10.9926 19.2426 12 18 12H15.75C14.5074 12 13.5 10.9926 13.5 9.75V7.5Z" stroke="#999999" stroke-width="1.5" stroke-linecap="round" stroke-linejoin="round"/>
<path d="M13.5 17.25C13.5 16.0074 14.5074 15 15.75 15H18C19.2426 15 20.25 16.0074 20.25 17.25V19.5C20.25 20.7426 19.2426 21.75 18 21.75H15.75C14.5074 21.75 13.5 20.7426 13.5 19.5V17.25Z" stroke="#999999" stroke-width="1.5" stroke-linecap="round" stroke-linejoin="round"/>
<path d="M31.08 20V7.4H35.247C36.117 7.4 36.933 7.565 37.695 7.895C38.457 8.219 39.126 8.672 39.702 9.254C40.278 9.83 40.728 10.499 41.052 11.261C41.382 12.017 41.547 12.83 41.547 13.7C41.547 14.57 41.382 15.386 41.052 16.148C40.728 16.904 40.278 17.573 39.702 18.155C39.126 18.731 38.457 19.184 37.695 19.514C36.933 19.838 36.117 20 35.247 20H31.08ZM32.592 18.488H35.247C35.907 18.488 36.525 18.365 37.101 18.119C37.683 17.867 38.193 17.522 38.631 17.084C39.069 16.646 39.411 16.139 39.657 15.563C39.909 14.981 40.035 14.36 40.035 13.7C40.035 13.04 39.909 12.422 39.657 11.846C39.411 11.264 39.066 10.754 38.622 10.316C38.184 9.878 37.677 9.536 37.101 9.29C36.525 9.038 35.907 8.912 35.247 8.912H32.592V18.488ZM46.9755 20.234C46.1475 20.234 45.3915 20.021 44.7075 19.595C44.0295 19.169 43.4865 18.599 43.0785 17.885C42.6765 17.165 42.4755 16.37 42.4755 15.5C42.4755 14.84 42.5925 14.225 42.8265 13.655C43.0605 13.079 43.3815 12.575 43.7895 12.143C44.2035 11.705 44.6835 11.363 45.2295 11.117C45.7755 10.871 46.3575 10.748 46.9755 10.748C47.8035 10.748 48.5565 10.961 49.2345 11.387C49.9185 11.813 50.4615 12.386 50.8635 13.106C51.2715 13.826 51.4755 14.624 51.4755 15.5C51.4755 16.154 51.3585 16.766 51.1245 17.336C50.8905 17.906 50.5665 18.41 50.1525 18.848C49.7445 19.28 49.2675 19.619 48.7215 19.865C48.1815 20.111 47.5995 20.234 46.9755 20.234ZM46.9755 18.722C47.5395 18.722 48.0465 18.575 48.4965 18.281C48.9525 17.981 49.3095 17.588 49.5675 17.102C49.8315 16.61 49.9635 16.076 49.9635 15.5C49.9635 14.912 49.8285 14.372 49.5585 13.88C49.2945 13.388 48.9375 12.995 48.4875 12.701C48.0375 12.407 47.5335 12.26 46.9755 12.26C46.4115 12.26 45.9045 12.41 45.4545 12.71C45.0045 13.004 44.6475 13.397 44.3835 13.889C44.1195 14.381 43.9875 14.918 43.9875 15.5C43.9875 16.1 44.1225 16.646 44.3925 17.138C44.6625 17.624 45.0255 18.011 45.4815 18.299C45.9375 18.581 46.4355 18.722 46.9755 18.722ZM52.9648 20V11H54.4768V12.125C54.7948 11.705 55.1938 11.372 55.6738 11.126C56.1598 10.874 56.6878 10.748 57.2578 10.748C57.9238 10.748 58.5328 10.91 59.0848 11.234C59.6368 11.558 60.0718 11.987 60.3898 12.521C60.7078 11.987 61.1398 11.558 61.6858 11.234C62.2378 10.91 62.8438 10.748 63.5038 10.748C64.1818 10.748 64.7968 10.913 65.3488 11.243C65.9008 11.567 66.3388 12.005 66.6628 12.557C66.9928 13.109 67.1578 13.724 67.1578 14.402V20H65.6458V14.762C65.6458 14.318 65.5378 13.907 65.3218 13.529C65.1058 13.151 64.8148 12.848 64.4488 12.62C64.0828 12.392 63.6778 12.278 63.2338 12.278C62.7898 12.278 62.3848 12.386 62.0188 12.602C61.6528 12.812 61.3618 13.106 61.1458 13.484C60.9298 13.856 60.8218 14.282 60.8218 14.762V20H59.3098V14.762C59.3098 14.282 59.2018 13.856 58.9858 13.484C58.7698 13.106 58.4758 12.812 58.1038 12.602C57.7378 12.386 57.3328 12.278 56.8888 12.278C56.4508 12.278 56.0458 12.392 55.6738 12.62C55.3078 12.848 55.0168 13.151 54.8008 13.529C54.5848 13.907 54.4768 14.318 54.4768 14.762V20H52.9648ZM76.0211 11H77.5331V20H76.0211L75.9581 18.479C75.6761 19.001 75.2861 19.424 74.7881 19.748C74.2961 20.072 73.7081 20.234 73.0241 20.234C72.3641 20.234 71.7461 20.111 71.1701 19.865C70.5941 19.613 70.0841 19.268 69.6401 18.83C69.2021 18.386 68.8601 17.876 68.6141 17.3C68.3681 16.724 68.2451 16.103 68.2451 15.437C68.2451 14.795 68.3651 14.189 68.6051 13.619C68.8451 13.049 69.1781 12.551 69.6041 12.125C70.0361 11.693 70.5341 11.357 71.0981 11.117C71.6621 10.871 72.2681 10.748 72.9161 10.748C73.6241 10.748 74.2451 10.916 74.7791 11.252C75.3131 11.582 75.7451 12.011 76.0751 12.539L76.0211 11ZM72.9971 18.767C73.5911 18.767 74.1041 18.623 74.5361 18.335C74.9741 18.041 75.3101 17.645 75.5441 17.147C75.7841 16.649 75.9041 16.1 75.9041 15.5C75.9041 14.888 75.7841 14.336 75.5441 13.844C75.3041 13.346 74.9651 12.953 74.5271 12.665C74.0951 12.371 73.5851 12.224 72.9971 12.224C72.4031 12.224 71.8631 12.371 71.3771 12.665C70.8911 12.959 70.5041 13.355 70.2161 13.853C69.9341 14.345 69.7931 14.894 69.7931 15.5C69.7931 16.106 69.9401 16.658 70.2341 17.156C70.5281 17.648 70.9181 18.041 71.4041 18.335C71.8901 18.623 72.4211 18.767 72.9971 18.767ZM79.332 11H80.844V20H79.332V11ZM80.106 9.533C79.866 9.533 79.665 9.455 79.503 9.299C79.341 9.143 79.26 8.948 79.26 8.714C79.26 8.48 79.341 8.285 79.503 8.129C79.665 7.973 79.863 7.895 80.097 7.895C80.331 7.895 80.529 7.973 80.691 8.129C80.853 8.285 80.934 8.48 80.934 8.714C80.934 8.948 80.853 9.143 80.691 9.299C80.535 9.455 80.34 9.533 80.106 9.533ZM90.9266 14.402V20H89.4146V14.735C89.4146 14.279 89.3036 13.865 89.0816 13.493C88.8596 13.121 88.5626 12.827 88.1906 12.611C87.8186 12.389 87.4046 12.278 86.9486 12.278C86.4986 12.278 86.0846 12.389 85.7066 12.611C85.3346 12.827 85.0376 13.121 84.8156 13.493C84.5936 13.865 84.4826 14.279 84.4826 14.735V20H82.9706V11H84.4826V12.125C84.8006 11.705 85.2026 11.372 85.6886 11.126C86.1746 10.874 86.7026 10.748 87.2726 10.748C87.9446 10.748 88.5566 10.913 89.1086 11.243C89.6666 11.567 90.1076 12.005 90.4316 12.557C90.7616 13.109 90.9266 13.724 90.9266 14.402Z" fill="#999999"/>
</svg>
