<svg width="123" height="33" viewBox="0 0 123 33" fill="none" xmlns="http://www.w3.org/2000/svg">
<rect x="0.5" y="0.5" width="122" height="32" rx="16" fill="#1A1A1A"/>
<rect x="0.5" y="0.5" width="122" height="32" rx="16" stroke="#262626"/>
<g clip-path="url(#clip0_139_8313)">
<g clip-path="url(#clip1_139_8313)">
<path d="M24.0119 23.9597C21.0137 23.9597 18.0163 23.9597 15.0181 23.9597C14.7149 23.9597 14.5748 24.0984 14.5748 24.3977C14.5748 24.4752 14.5787 24.5527 14.574 24.6295C14.5677 24.7225 14.5583 24.8155 14.5409 24.9062C14.4764 25.2372 14.1591 25.5023 13.7796 25.4984C13.3985 25.4946 13.0828 25.2116 13.0253 24.8481C13.0119 24.7628 13.0048 24.6752 13.0048 24.5891C13.004 22.8279 12.9922 21.0659 13.0088 19.3046C13.0182 18.2783 13.3977 17.3853 14.1252 16.6419C14.5669 16.1907 15.0921 15.8698 15.6928 15.6651C16.1652 15.5046 16.6534 15.4558 17.151 15.4558C21.7625 15.4574 26.3739 15.4535 30.9854 15.4589C32.3365 15.4605 33.4309 15.9969 34.2419 17.0636C34.6403 17.5884 34.8781 18.1845 34.9592 18.8357C34.9867 19.055 34.9985 19.2783 34.9993 19.5C35.0025 21.2101 35.0017 22.9202 35.0009 24.6302C35.0009 24.8977 34.934 25.1411 34.7104 25.3178C34.4741 25.5046 34.2104 25.5535 33.9293 25.4395C33.66 25.3295 33.49 25.1271 33.4514 24.838C33.4317 24.6922 33.4341 24.5426 33.4301 24.3953C33.4238 24.1574 33.3238 24.0139 33.1239 23.9698C33.0798 23.9597 33.0333 23.9605 32.9876 23.9605C29.9965 23.9605 27.0054 23.9605 24.0135 23.9605L24.0119 23.9597Z" fill="white"/>
<path d="M23.902 8.5C25.8467 8.5 27.7907 8.5 29.7346 8.5C30.3858 8.5 30.9944 8.64341 31.5195 9.03953C32.1951 9.54884 32.5895 10.2194 32.6226 11.0612C32.651 11.7752 32.6384 12.4907 32.6415 13.2054C32.6439 13.6659 32.6415 14.1264 32.6415 14.5868C32.6415 14.6279 32.6391 14.6713 32.6281 14.7109C32.5943 14.8357 32.5258 14.8853 32.3966 14.8612C32.2557 14.8349 32.1195 14.7783 31.9786 14.7628C31.6471 14.7271 31.3148 14.7023 30.9818 14.6853C30.7597 14.6736 30.6913 14.6341 30.6598 14.4194C30.559 13.7388 29.9189 13.1264 29.1 13.1357C28.1867 13.1457 27.2734 13.138 26.3609 13.138C25.6814 13.138 25.1011 13.5364 24.8704 14.1643C24.8373 14.2543 24.8247 14.3519 24.8074 14.4465C24.7751 14.6163 24.7114 14.6798 24.5397 14.6822C24.1799 14.686 23.8193 14.686 23.4595 14.6822C23.2941 14.6806 23.2288 14.6163 23.1989 14.4279C23.1571 14.1636 23.0532 13.9279 22.8831 13.7209C22.5753 13.3457 22.1769 13.1419 21.6856 13.1395C20.7431 13.1349 19.8007 13.1372 18.8575 13.1388C18.0654 13.1395 17.4457 13.7488 17.345 14.4178C17.3127 14.6341 17.2473 14.6721 17.0253 14.686C16.6576 14.7101 16.2899 14.7442 15.923 14.7829C15.8104 14.7946 15.7026 14.8426 15.5908 14.8612C15.4703 14.8806 15.4144 14.8403 15.3805 14.724C15.3672 14.6783 15.3609 14.6295 15.3609 14.5814C15.3601 13.4767 15.3451 12.3721 15.364 11.2674C15.3837 10.1116 15.9262 9.26202 16.9875 8.74806C17.408 8.54574 17.8638 8.5 18.3252 8.5C20.1841 8.5 22.0431 8.5 23.902 8.5Z" fill="white"/>
</g>
</g>
<path d="M42.774 21V18.354H38.56V17.164L42.48 11.2H43.95V17.178H44.923V18.354H43.95V21H42.774ZM39.939 17.164L42.774 17.178L42.753 12.852L39.939 17.164ZM46.6056 16.212H51.0856V17.388H46.6056V16.212ZM52.7716 21V11.2H56.1526C56.638 11.2 57.079 11.3003 57.4756 11.501C57.877 11.697 58.1943 11.984 58.4276 12.362C58.661 12.74 58.7776 13.1927 58.7776 13.72C58.7776 14.0047 58.7286 14.28 58.6306 14.546C58.5373 14.8073 58.4066 15.0337 58.2386 15.225C58.0753 15.4117 57.8886 15.5377 57.6786 15.603C57.9726 15.6777 58.2223 15.8107 58.4276 16.002C58.633 16.1887 58.7986 16.408 58.9246 16.66C59.0553 16.912 59.1486 17.1757 59.2046 17.451C59.2606 17.7263 59.2886 17.9923 59.2886 18.249C59.2886 18.7903 59.165 19.2687 58.9176 19.684C58.675 20.0947 58.3483 20.4167 57.9376 20.65C57.527 20.8833 57.0743 21 56.5796 21H52.7716ZM53.9476 19.964H56.4746C56.7966 19.964 57.0883 19.8823 57.3496 19.719C57.6156 19.551 57.828 19.3223 57.9866 19.033C58.1453 18.7437 58.2246 18.417 58.2246 18.053C58.2246 17.731 58.1453 17.4277 57.9866 17.143C57.828 16.8537 57.6156 16.6203 57.3496 16.443C57.0883 16.2657 56.7966 16.177 56.4746 16.177H53.9476V19.964ZM53.9476 15.162H56.0406C56.47 15.162 56.8363 15.036 57.1396 14.784C57.4476 14.5273 57.6016 14.1703 57.6016 13.713C57.6016 13.2183 57.4476 12.8497 57.1396 12.607C56.8363 12.3597 56.47 12.236 56.0406 12.236H53.9476V15.162ZM63.4669 21.182C62.8229 21.182 62.2349 21.0163 61.7029 20.685C61.1755 20.3537 60.7532 19.9103 60.4359 19.355C60.1232 18.795 59.9669 18.1767 59.9669 17.5C59.9669 16.9867 60.0579 16.5083 60.2399 16.065C60.4219 15.617 60.6715 15.225 60.9889 14.889C61.3109 14.5483 61.6842 14.2823 62.1089 14.091C62.5335 13.8997 62.9862 13.804 63.4669 13.804C63.9942 13.804 64.4772 13.9113 64.9159 14.126C65.3592 14.336 65.7372 14.63 66.0499 15.008C66.3672 15.386 66.6029 15.8247 66.7569 16.324C66.9155 16.8233 66.9739 17.3577 66.9319 17.927H61.2199C61.2759 18.3237 61.4065 18.6783 61.6119 18.991C61.8172 19.299 62.0785 19.544 62.3959 19.726C62.7179 19.908 63.0749 20.0013 63.4669 20.006C63.8869 20.006 64.2672 19.8987 64.6079 19.684C64.9485 19.4647 65.2239 19.166 65.4339 18.788L66.6309 19.068C66.3509 19.6887 65.9285 20.1973 65.3639 20.594C64.7992 20.986 64.1669 21.182 63.4669 21.182ZM61.1849 17.003H65.7489C65.7115 16.611 65.5855 16.254 65.3709 15.932C65.1562 15.6053 64.8832 15.344 64.5519 15.148C64.2205 14.952 63.8589 14.854 63.4669 14.854C63.0749 14.854 62.7155 14.9497 62.3889 15.141C62.0622 15.3323 61.7915 15.5913 61.5769 15.918C61.3669 16.24 61.2362 16.6017 61.1849 17.003ZM73.7055 10.5H74.8815V21H73.7055V19.81C73.4675 20.2207 73.1478 20.552 72.7465 20.804C72.3451 21.056 71.8738 21.182 71.3325 21.182C70.8238 21.182 70.3478 21.0863 69.9045 20.895C69.4611 20.7037 69.0691 20.44 68.7285 20.104C68.3925 19.7633 68.1288 19.3713 67.9375 18.928C67.7461 18.4847 67.6505 18.0087 67.6505 17.5C67.6505 16.9913 67.7461 16.5153 67.9375 16.072C68.1288 15.624 68.3925 15.232 68.7285 14.896C69.0691 14.5553 69.4611 14.2893 69.9045 14.098C70.3478 13.9067 70.8238 13.811 71.3325 13.811C71.8738 13.811 72.3451 13.937 72.7465 14.189C73.1478 14.441 73.4675 14.7723 73.7055 15.183V10.5ZM71.3465 20.041C71.8085 20.041 72.2075 19.929 72.5435 19.705C72.8841 19.4763 73.1455 19.1683 73.3275 18.781C73.5141 18.3937 73.6075 17.9667 73.6075 17.5C73.6075 17.024 73.5141 16.5947 73.3275 16.212C73.1408 15.8247 72.8771 15.519 72.5365 15.295C72.2005 15.0663 71.8038 14.952 71.3465 14.952C70.8845 14.952 70.4645 15.0663 70.0865 15.295C69.7131 15.5237 69.4145 15.8317 69.1905 16.219C68.9665 16.6017 68.8545 17.0287 68.8545 17.5C68.8545 17.9713 68.9688 18.4007 69.1975 18.788C69.4261 19.1707 69.7295 19.4763 70.1075 19.705C70.4855 19.929 70.8985 20.041 71.3465 20.041ZM76.5607 21V14H77.7367V14.875C77.984 14.5483 78.2967 14.2893 78.6747 14.098C79.0527 13.902 79.4634 13.804 79.9067 13.804C80.1774 13.804 80.4387 13.839 80.6907 13.909L80.2147 15.085C80.0234 15.0243 79.8367 14.994 79.6547 14.994C79.3047 14.994 78.9827 15.0803 78.6887 15.253C78.3994 15.421 78.1684 15.6497 77.9957 15.939C77.823 16.2283 77.7367 16.5503 77.7367 16.905V21H76.5607ZM84.2755 21.182C83.6315 21.182 83.0435 21.0163 82.5115 20.685C81.9841 20.3537 81.5618 19.9103 81.2445 19.355C80.9318 18.795 80.7755 18.1767 80.7755 17.5C80.7755 16.9867 80.8665 16.5083 81.0485 16.065C81.2305 15.617 81.4801 15.225 81.7975 14.889C82.1195 14.5483 82.4928 14.2823 82.9175 14.091C83.3421 13.8997 83.7948 13.804 84.2755 13.804C84.9195 13.804 85.5051 13.9697 86.0325 14.301C86.5645 14.6323 86.9868 15.078 87.2995 15.638C87.6168 16.198 87.7755 16.8187 87.7755 17.5C87.7755 18.0087 87.6845 18.4847 87.5025 18.928C87.3205 19.3713 87.0685 19.7633 86.7465 20.104C86.4291 20.44 86.0581 20.7037 85.6335 20.895C85.2135 21.0863 84.7608 21.182 84.2755 21.182ZM84.2755 20.006C84.7141 20.006 85.1085 19.8917 85.4585 19.663C85.8131 19.4297 86.0908 19.124 86.2915 18.746C86.4968 18.3633 86.5995 17.948 86.5995 17.5C86.5995 17.0427 86.4945 16.6227 86.2845 16.24C86.0791 15.8573 85.8015 15.5517 85.4515 15.323C85.1015 15.0943 84.7095 14.98 84.2755 14.98C83.8368 14.98 83.4425 15.0967 83.0925 15.33C82.7425 15.5587 82.4648 15.8643 82.2595 16.247C82.0541 16.6297 81.9515 17.0473 81.9515 17.5C81.9515 17.9667 82.0565 18.3913 82.2665 18.774C82.4765 19.152 82.7588 19.453 83.1135 19.677C83.4681 19.8963 83.8555 20.006 84.2755 20.006ZM91.9727 21.182C91.3287 21.182 90.7407 21.0163 90.2087 20.685C89.6814 20.3537 89.2591 19.9103 88.9417 19.355C88.6291 18.795 88.4727 18.1767 88.4727 17.5C88.4727 16.9867 88.5637 16.5083 88.7457 16.065C88.9277 15.617 89.1774 15.225 89.4947 14.889C89.8167 14.5483 90.1901 14.2823 90.6147 14.091C91.0394 13.8997 91.4921 13.804 91.9727 13.804C92.6167 13.804 93.2024 13.9697 93.7297 14.301C94.2617 14.6323 94.6841 15.078 94.9967 15.638C95.3141 16.198 95.4727 16.8187 95.4727 17.5C95.4727 18.0087 95.3817 18.4847 95.1997 18.928C95.0177 19.3713 94.7657 19.7633 94.4437 20.104C94.1264 20.44 93.7554 20.7037 93.3307 20.895C92.9107 21.0863 92.4581 21.182 91.9727 21.182ZM91.9727 20.006C92.4114 20.006 92.8057 19.8917 93.1557 19.663C93.5104 19.4297 93.7881 19.124 93.9887 18.746C94.1941 18.3633 94.2967 17.948 94.2967 17.5C94.2967 17.0427 94.1917 16.6227 93.9817 16.24C93.7764 15.8573 93.4987 15.5517 93.1487 15.323C92.7987 15.0943 92.4067 14.98 91.9727 14.98C91.5341 14.98 91.1397 15.0967 90.7897 15.33C90.4397 15.5587 90.1621 15.8643 89.9567 16.247C89.7514 16.6297 89.6487 17.0473 89.6487 17.5C89.6487 17.9667 89.7537 18.3913 89.9637 18.774C90.1737 19.152 90.4561 19.453 90.8107 19.677C91.1654 19.8963 91.5527 20.006 91.9727 20.006ZM96.631 21V14H97.807V14.875C98.0543 14.5483 98.3647 14.2893 98.738 14.098C99.116 13.902 99.5267 13.804 99.97 13.804C100.488 13.804 100.962 13.93 101.391 14.182C101.82 14.434 102.159 14.7677 102.406 15.183C102.653 14.7677 102.989 14.434 103.414 14.182C103.843 13.93 104.315 13.804 104.828 13.804C105.355 13.804 105.834 13.9323 106.263 14.189C106.692 14.441 107.033 14.7817 107.285 15.211C107.542 15.6403 107.67 16.1187 107.67 16.646V21H106.494V16.926C106.494 16.5807 106.41 16.261 106.242 15.967C106.074 15.673 105.848 15.4373 105.563 15.26C105.278 15.0827 104.963 14.994 104.618 14.994C104.273 14.994 103.958 15.078 103.673 15.246C103.388 15.4093 103.162 15.638 102.994 15.932C102.826 16.2213 102.742 16.5527 102.742 16.926V21H101.566V16.926C101.566 16.5527 101.482 16.2213 101.314 15.932C101.146 15.638 100.917 15.4093 100.628 15.246C100.343 15.078 100.028 14.994 99.683 14.994C99.3423 14.994 99.0273 15.0827 98.738 15.26C98.4533 15.4373 98.227 15.673 98.059 15.967C97.891 16.261 97.807 16.5807 97.807 16.926V21H96.631Z" fill="white"/>
<defs>
<clipPath id="clip0_139_8313">
<rect width="20" height="20" fill="white" transform="translate(14 6.5)"/>
</clipPath>
<clipPath id="clip1_139_8313">
<rect width="22" height="17" fill="white" transform="translate(13 8.5)"/>
</clipPath>
</defs>
</svg>
