<svg width="60" height="60" viewBox="0 0 60 60" fill="none" xmlns="http://www.w3.org/2000/svg">
<rect x="0.5" y="0.5" width="59" height="59" rx="29.5" fill="#141414"/>
<rect x="0.5" y="0.5" width="59" height="59" rx="29.5" stroke="#703BF7"/>
<path d="M29.649 19.2728C29.8724 19.1752 30.1263 19.1752 30.3497 19.2728C34.6883 21.1685 38.8002 23.4858 42.6337 26.1728C42.9111 26.3673 43.0514 26.7044 42.9937 27.0382C42.9361 27.3721 42.6909 27.6426 42.3643 27.7328C41.5652 27.9534 40.7731 28.1909 39.9881 28.4441C36.8018 29.4717 33.7347 30.7646 30.8126 32.2969L30.8088 32.2989C30.6763 32.3684 30.5441 32.4384 30.4122 32.5088C30.1546 32.6465 29.8452 32.6465 29.5875 32.5088C29.4544 32.4377 29.3209 32.3671 29.1872 32.2969C27.7423 31.5392 26.2619 30.8401 24.7493 30.2026V29.9416C24.7493 29.7884 24.8279 29.6524 24.9496 29.5787C26.7056 28.5148 28.5169 27.5333 30.3781 26.6393C30.8137 26.43 30.9972 25.9073 30.788 25.4717C30.5788 25.0361 30.056 24.8526 29.6204 25.0618C27.708 25.9804 25.8469 26.9889 24.0428 28.0819C23.5139 28.4024 23.1583 28.9268 23.0413 29.5144C22.0439 29.1307 21.0334 28.7734 20.0106 28.4435C19.2256 28.1904 18.4334 27.9533 17.6344 27.7328C17.3078 27.6426 17.0626 27.3721 17.005 27.0382C16.9473 26.7044 17.0876 26.3673 17.365 26.1728C21.1985 23.4858 25.3104 21.1685 29.649 19.2728Z" fill="#A685FA"/>
<path d="M31.2369 34.0523C34.0823 32.532 37.0717 31.2468 40.1794 30.2224C40.336 31.873 40.436 33.54 40.4774 35.2214C40.4863 35.5822 40.2728 35.9114 39.9398 36.0504C36.6135 37.4392 33.4495 39.1397 30.4845 41.1156C30.1907 41.3115 29.8079 41.3115 29.5141 41.1156C26.5491 39.1397 23.3851 37.4392 20.0588 36.0504C19.7258 35.9114 19.5123 35.5822 19.5212 35.2214C19.5626 33.5399 19.6626 31.8727 19.8193 30.222C20.8938 30.5762 21.9541 30.9615 22.9993 31.377V32.8591C22.4762 33.1617 22.1243 33.7273 22.1243 34.375C22.1243 34.9529 22.4044 35.4653 22.8362 35.784C22.7318 36.2281 22.5772 36.6626 22.3725 37.0787C22.9006 37.328 23.4243 37.5853 23.9432 37.8504C24.2388 37.2493 24.4531 36.6184 24.5861 35.9742C25.1978 35.7014 25.6243 35.088 25.6243 34.375C25.6243 33.7273 25.2723 33.1617 24.7493 32.8591V32.1069C26.1159 32.704 27.4546 33.3533 28.7628 34.0523C29.5358 34.4654 30.4639 34.4654 31.2369 34.0523Z" fill="#A685FA"/>
<path d="M21.2052 38.706C21.6942 38.217 22.0835 37.6663 22.3725 37.0787C22.9006 37.328 23.4243 37.5853 23.9432 37.8504C23.5716 38.6063 23.0712 39.3149 22.4426 39.9434C22.1009 40.2852 21.5469 40.2852 21.2052 39.9434C20.8635 39.6017 20.8635 39.0477 21.2052 38.706Z" fill="#A685FA"/>
</svg>
