<svg width="20" height="20" viewBox="0 0 20 20" fill="none" xmlns="http://www.w3.org/2000/svg">
<path d="M14.166 5.83333H14.9993V6.66667C14.9993 6.88768 15.0871 7.09964 15.2434 7.25592C15.3997 7.4122 15.6117 7.5 15.8327 7.5C16.0537 7.5 16.2657 7.4122 16.4219 7.25592C16.5782 7.09964 16.666 6.88768 16.666 6.66667V5.83333H17.4993C17.7204 5.83333 17.9323 5.74554 18.0886 5.58926C18.2449 5.43298 18.3327 5.22101 18.3327 5C18.3327 4.77899 18.2449 4.56702 18.0886 4.41074C17.9323 4.25446 17.7204 4.16667 17.4993 4.16667H16.666V3.33333C16.666 3.11232 16.5782 2.90036 16.4219 2.74408C16.2657 2.5878 16.0537 2.5 15.8327 2.5C15.6117 2.5 15.3997 2.5878 15.2434 2.74408C15.0871 2.90036 14.9993 3.11232 14.9993 3.33333V4.16667H14.166C13.945 4.16667 13.733 4.25446 13.5768 4.41074C13.4205 4.56702 13.3327 4.77899 13.3327 5C13.3327 5.22101 13.4205 5.43298 13.5768 5.58926C13.733 5.74554 13.945 5.83333 14.166 5.83333ZM17.4993 9.16667C17.2783 9.16667 17.0664 9.25446 16.9101 9.41074C16.7538 9.56702 16.666 9.77899 16.666 10V15C16.666 15.221 16.5782 15.433 16.4219 15.5893C16.2657 15.7455 16.0537 15.8333 15.8327 15.8333H4.16602C3.945 15.8333 3.73304 15.7455 3.57676 15.5893C3.42048 15.433 3.33268 15.221 3.33268 15V7.00833L8.23268 11.9167C8.70143 12.3848 9.33685 12.6478 9.99935 12.6478C10.6618 12.6478 11.2973 12.3848 11.766 11.9167L13.8243 9.85833C13.9813 9.70141 14.0694 9.48858 14.0694 9.26667C14.0694 9.04475 13.9813 8.83192 13.8243 8.675C13.6674 8.51808 13.4546 8.42992 13.2327 8.42992C13.0108 8.42992 12.7979 8.51808 12.641 8.675L10.5827 10.7333C10.4269 10.886 10.2175 10.9715 9.99935 10.9715C9.78122 10.9715 9.57179 10.886 9.41601 10.7333L4.50768 5.83333H10.8327C11.0537 5.83333 11.2657 5.74554 11.4219 5.58926C11.5782 5.43298 11.666 5.22101 11.666 5C11.666 4.77899 11.5782 4.56702 11.4219 4.41074C11.2657 4.25446 11.0537 4.16667 10.8327 4.16667H4.16602C3.50297 4.16667 2.86709 4.43006 2.39825 4.8989C1.92941 5.36774 1.66602 6.00363 1.66602 6.66667V15C1.66602 15.663 1.92941 16.2989 2.39825 16.7678C2.86709 17.2366 3.50297 17.5 4.16602 17.5H15.8327C16.4957 17.5 17.1316 17.2366 17.6004 16.7678C18.0693 16.2989 18.3327 15.663 18.3327 15V10C18.3327 9.77899 18.2449 9.56702 18.0886 9.41074C17.9323 9.25446 17.7204 9.16667 17.4993 9.16667Z" fill="#999999"/>
</svg>
