<svg width="60" height="60" viewBox="0 0 60 60" fill="none" xmlns="http://www.w3.org/2000/svg">
<rect x="0.5" y="0.5" width="59" height="59" rx="29.5" stroke="url(#paint0_linear_139_6450)"/>
<rect x="0.5" y="0.5" width="59" height="59" rx="29.5" stroke="url(#paint1_linear_139_6450)"/>
<rect x="8.5" y="8.5" width="43" height="43" rx="21.5" stroke="url(#paint2_linear_139_6450)"/>
<rect x="8.5" y="8.5" width="43" height="43" rx="21.5" stroke="url(#paint3_linear_139_6450)"/>
<path d="M21.4543 26.5453C22.8602 27.9512 25.1396 27.9512 26.5455 26.5453C26.7182 26.3725 26.8698 26.1866 27.0001 25.9907C27.6451 26.9606 28.7478 27.5998 29.9999 27.5998C31.2521 27.5998 32.355 26.9604 33 25.9903C33.1304 26.1864 33.282 26.3725 33.4549 26.5453C34.8607 27.9512 37.1401 27.9512 38.546 26.5453C39.9519 25.1395 39.9519 22.8601 38.546 21.4542L38.1948 21.103C37.7447 20.6529 37.1343 20.4 36.4978 20.4H23.5025C22.866 20.4 22.2556 20.6529 21.8055 21.103L21.4543 21.4541C20.0484 22.86 20.0484 25.1394 21.4543 26.5453Z" fill="#A685FA"/>
<path d="M21.5999 28.8387C23.3135 29.6888 25.3846 29.5728 27.0006 28.4905C27.8579 29.0641 28.8896 29.3997 29.9999 29.3997C31.1103 29.3997 32.1421 29.064 32.9995 28.4903C34.6153 29.5727 36.6863 29.6889 38.3999 28.839V37.8H38.6999C39.197 37.8 39.5999 38.203 39.5999 38.7C39.5999 39.1971 39.197 39.6 38.6999 39.6H33.2999C32.8028 39.6 32.3999 39.1971 32.3999 38.7V34.5C32.3999 34.003 31.997 33.6 31.4999 33.6H28.4999C28.0028 33.6 27.5999 34.003 27.5999 34.5V38.7C27.5999 39.1971 27.197 39.6 26.6999 39.6H21.2999C20.8028 39.6 20.3999 39.1971 20.3999 38.7C20.3999 38.203 20.8028 37.8 21.2999 37.8H21.5999V28.8387Z" fill="#A685FA"/>
<defs>
<linearGradient id="paint0_linear_139_6450" x1="4.93903" y1="63.2927" x2="62.7439" y2="-4.02439" gradientUnits="userSpaceOnUse">
<stop stop-color="#A685FA"/>
<stop offset="0.323723" stop-color="#A685FA" stop-opacity="0"/>
</linearGradient>
<linearGradient id="paint1_linear_139_6450" x1="59.8171" y1="-7.68292" x2="4.93902" y2="60" gradientUnits="userSpaceOnUse">
<stop stop-color="#A685FA"/>
<stop offset="0.576615" stop-color="#A685FA" stop-opacity="0"/>
</linearGradient>
<linearGradient id="paint2_linear_139_6450" x1="3.20968" y1="10.4839" x2="51.8226" y2="52" gradientUnits="userSpaceOnUse">
<stop stop-color="#A685FA"/>
<stop offset="0.323723" stop-color="#A685FA" stop-opacity="0"/>
</linearGradient>
<linearGradient id="paint3_linear_139_6450" x1="60.6935" y1="61.9355" x2="9.59677" y2="25.7419" gradientUnits="userSpaceOnUse">
<stop stop-color="#A685FA"/>
<stop offset="0.576615" stop-color="#A685FA" stop-opacity="0"/>
</linearGradient>
</defs>
</svg>
