<svg width="60" height="60" viewBox="0 0 60 60" fill="none" xmlns="http://www.w3.org/2000/svg">
<rect x="0.5" y="0.5" width="59" height="59" rx="29.5" stroke="url(#paint0_linear_139_6466)"/>
<rect x="0.5" y="0.5" width="59" height="59" rx="29.5" stroke="url(#paint1_linear_139_6466)"/>
<rect x="8.5" y="8.5" width="43" height="43" rx="21.5" stroke="url(#paint2_linear_139_6466)"/>
<rect x="8.5" y="8.5" width="43" height="43" rx="21.5" stroke="url(#paint3_linear_139_6466)"/>
<path fill-rule="evenodd" clip-rule="evenodd" d="M19.2002 21.3C19.2002 20.803 19.6031 20.4 20.1002 20.4H32.7002C33.1973 20.4 33.6002 20.803 33.6002 21.3C33.6002 21.7971 33.1973 22.2 32.7002 22.2H32.4002V38.7C32.4002 39.1971 31.9973 39.6 31.5002 39.6H29.7002C29.2031 39.6 28.8002 39.1971 28.8002 38.7V35.7C28.8002 35.203 28.3973 34.8 27.9002 34.8H24.9002C24.4031 34.8 24.0002 35.203 24.0002 35.7V38.7C24.0002 39.1971 23.5973 39.6 23.1002 39.6H20.1002C19.6031 39.6 19.2002 39.1971 19.2002 38.7C19.2002 38.203 19.6031 37.8 20.1002 37.8H20.4002V22.2H20.1002C19.6031 22.2 19.2002 21.7971 19.2002 21.3ZM22.8002 24.6C22.8002 24.2687 23.0688 24 23.4002 24H24.6002C24.9316 24 25.2002 24.2687 25.2002 24.6V25.8C25.2002 26.1314 24.9316 26.4 24.6002 26.4H23.4002C23.0688 26.4 22.8002 26.1314 22.8002 25.8V24.6ZM23.4002 28.8C23.0688 28.8 22.8002 29.0687 22.8002 29.4V30.6C22.8002 30.9314 23.0688 31.2 23.4002 31.2H24.6002C24.9316 31.2 25.2002 30.9314 25.2002 30.6V29.4C25.2002 29.0687 24.9316 28.8 24.6002 28.8H23.4002ZM27.6002 24.6C27.6002 24.2687 27.8688 24 28.2002 24H29.4002C29.7316 24 30.0002 24.2687 30.0002 24.6V25.8C30.0002 26.1314 29.7316 26.4 29.4002 26.4H28.2002C27.8688 26.4 27.6002 26.1314 27.6002 25.8V24.6ZM28.2002 28.8C27.8688 28.8 27.6002 29.0687 27.6002 29.4V30.6C27.6002 30.9314 27.8688 31.2 28.2002 31.2H29.4002C29.7316 31.2 30.0002 30.9314 30.0002 30.6V29.4C30.0002 29.0687 29.7316 28.8 29.4002 28.8H28.2002Z" fill="#A685FA"/>
<path fill-rule="evenodd" clip-rule="evenodd" d="M35.1002 25.2C34.6031 25.2 34.2002 25.603 34.2002 26.1V38.4C34.2002 39.0628 34.7375 39.6 35.4002 39.6H39.9002C40.3973 39.6 40.8002 39.1971 40.8002 38.7C40.8002 38.203 40.3973 37.8 39.9002 37.8H39.6002V27H39.9002C40.3973 27 40.8002 26.5971 40.8002 26.1C40.8002 25.603 40.3973 25.2 39.9002 25.2H35.1002ZM35.7002 29.4C35.7002 29.0687 35.9688 28.8 36.3002 28.8H37.5002C37.8316 28.8 38.1002 29.0687 38.1002 29.4V30.6C38.1002 30.9314 37.8316 31.2 37.5002 31.2H36.3002C35.9688 31.2 35.7002 30.9314 35.7002 30.6V29.4ZM36.3002 33.6C35.9688 33.6 35.7002 33.8687 35.7002 34.2V35.4C35.7002 35.7314 35.9688 36 36.3002 36H37.5002C37.8316 36 38.1002 35.7314 38.1002 35.4V34.2C38.1002 33.8687 37.8316 33.6 37.5002 33.6H36.3002Z" fill="#A685FA"/>
<defs>
<linearGradient id="paint0_linear_139_6466" x1="4.93903" y1="63.2927" x2="62.7439" y2="-4.02439" gradientUnits="userSpaceOnUse">
<stop stop-color="#A685FA"/>
<stop offset="0.323723" stop-color="#A685FA" stop-opacity="0"/>
</linearGradient>
<linearGradient id="paint1_linear_139_6466" x1="59.8171" y1="-7.68292" x2="4.93902" y2="60" gradientUnits="userSpaceOnUse">
<stop stop-color="#A685FA"/>
<stop offset="0.576615" stop-color="#A685FA" stop-opacity="0"/>
</linearGradient>
<linearGradient id="paint2_linear_139_6466" x1="3.20968" y1="10.4839" x2="51.8226" y2="52" gradientUnits="userSpaceOnUse">
<stop stop-color="#A685FA"/>
<stop offset="0.323723" stop-color="#A685FA" stop-opacity="0"/>
</linearGradient>
<linearGradient id="paint3_linear_139_6466" x1="60.6935" y1="61.9355" x2="9.59677" y2="25.7419" gradientUnits="userSpaceOnUse">
<stop stop-color="#A685FA"/>
<stop offset="0.576615" stop-color="#A685FA" stop-opacity="0"/>
</linearGradient>
</defs>
</svg>
