<svg width="160" height="48" viewBox="0 0 160 48" fill="none" xmlns="http://www.w3.org/2000/svg">
<path d="M24 48C10.7467 48 0 37.2533 0 24H24V48Z" fill="#703BF7"/>
<path d="M0 0C13.2533 0 24 10.7467 24 24H0V0Z" fill="#703BF7"/>
<path d="M24 48C37.2533 48 48 37.2533 48 24H24V48Z" fill="#703BF7"/>
<path d="M48 24C48 10.7467 37.2533 0 24 0V24H48Z" fill="#703BF7"/>
<path d="M156.82 34.8601V26.8534C156.82 25.9284 156.522 25.1672 155.924 24.5698C155.346 23.9725 154.595 23.6738 153.67 23.6738C153.053 23.6738 152.504 23.8087 152.022 24.0784C151.54 24.3482 151.165 24.724 150.895 25.2058C150.625 25.6875 150.49 26.2367 150.49 26.8534L149.247 26.1596C149.247 25.0998 149.478 24.1652 149.941 23.3558C150.403 22.5272 151.039 21.8816 151.849 21.4192C152.677 20.9374 153.602 20.6965 154.624 20.6965C155.664 20.6965 156.589 20.9663 157.398 21.5059C158.208 22.0262 158.844 22.7103 159.306 23.5582C159.769 24.3868 160 25.2539 160 26.1596V34.8601H156.82ZM147.311 34.8601V20.9856H150.49V34.8601H147.311Z" fill="white"/>
<path d="M140.565 34.8604V20.9859H143.745V34.8604H140.565ZM142.155 18.4422C141.615 18.4422 141.162 18.2591 140.796 17.893C140.449 17.5269 140.276 17.074 140.276 16.5345C140.276 15.9949 140.449 15.542 140.796 15.1759C141.162 14.8098 141.615 14.6267 142.155 14.6267C142.714 14.6267 143.166 14.8098 143.513 15.1759C143.86 15.542 144.034 15.9949 144.034 16.5345C144.034 17.074 143.86 17.5269 143.513 17.893C143.166 18.2591 142.714 18.4422 142.155 18.4422Z" fill="white"/>
<path d="M131.541 35.1492C130.154 35.1492 128.901 34.8408 127.783 34.2242C126.685 33.5883 125.808 32.7211 125.153 31.6227C124.517 30.5243 124.199 29.291 124.199 27.9228C124.199 26.5547 124.517 25.331 125.153 24.2519C125.789 23.1535 126.647 22.2863 127.726 21.6504C128.824 21.0145 130.038 20.6965 131.368 20.6965C132.659 20.6965 133.796 20.9952 134.779 21.5926C135.781 22.19 136.561 23.009 137.12 24.0495C137.698 25.0901 137.987 26.2752 137.987 27.6049C137.987 27.8361 137.968 28.077 137.929 28.3275C137.91 28.5588 137.871 28.8189 137.814 29.108H126.425V26.5065H136.166L134.981 27.5471C134.942 26.6992 134.779 25.9862 134.489 25.4081C134.2 24.83 133.786 24.3868 133.247 24.0784C132.726 23.7701 132.081 23.616 131.31 23.616C130.501 23.616 129.797 23.7894 129.2 24.1363C128.602 24.4831 128.14 24.9745 127.812 25.6104C127.485 26.2271 127.321 26.969 127.321 27.8361C127.321 28.7033 127.494 29.4645 127.841 30.1196C128.188 30.7748 128.68 31.2855 129.315 31.6516C129.951 31.9985 130.684 32.1719 131.512 32.1719C132.225 32.1719 132.88 32.0467 133.478 31.7961C134.094 31.5456 134.615 31.1795 135.039 30.6977L137.062 32.75C136.388 33.5401 135.569 34.1375 134.605 34.5421C133.642 34.9468 132.62 35.1492 131.541 35.1492Z" fill="white"/>
<path d="M116.677 34.8604V15.2048H119.856V34.8604H116.677ZM113.353 23.8764V20.9859H123.18V23.8764H113.353Z" fill="white"/>
<path d="M103.609 35.1492C102.357 35.1492 101.22 34.8312 100.198 34.1953C99.1964 33.5594 98.3967 32.7018 97.7993 31.6227C97.2212 30.5243 96.9321 29.3007 96.9321 27.9518C96.9321 26.5836 97.2212 25.3599 97.7993 24.2808C98.3967 23.1824 99.1964 22.3152 100.198 21.6793C101.22 21.0241 102.357 20.6965 103.609 20.6965C104.669 20.6965 105.604 20.9278 106.413 21.3903C107.242 21.8335 107.897 22.4501 108.379 23.2402C108.86 24.0303 109.101 24.9263 109.101 25.9284V29.9173C109.101 30.9194 108.86 31.8154 108.379 32.6055C107.916 33.3956 107.271 34.0219 106.442 34.4843C105.613 34.9275 104.669 35.1492 103.609 35.1492ZM104.13 32.143C105.305 32.143 106.249 31.748 106.962 30.9579C107.695 30.1678 108.061 29.1561 108.061 27.9228C108.061 27.0942 107.897 26.362 107.569 25.726C107.242 25.0901 106.779 24.5987 106.182 24.2519C105.604 23.8857 104.92 23.7027 104.13 23.7027C103.359 23.7027 102.675 23.8857 102.077 24.2519C101.499 24.5987 101.037 25.0901 100.69 25.726C100.362 26.362 100.198 27.0942 100.198 27.9228C100.198 28.7515 100.362 29.4837 100.69 30.1196C101.037 30.7556 101.499 31.2566 102.077 31.6227C102.675 31.9696 103.359 32.143 104.13 32.143ZM107.858 34.8601V31.1313L108.408 27.7494L107.858 24.3964V20.9856H111.038V34.8601H107.858Z" fill="white"/>
<path d="M89.3798 34.8604V15.2048H92.5593V34.8604H89.3798ZM86.0557 23.8764V20.9859H95.8834V23.8764H86.0557Z" fill="white"/>
<path d="M79.3879 35.1492C78.6171 35.1492 77.8752 35.0528 77.1622 34.8601C76.4492 34.6481 75.794 34.3591 75.1966 33.9929C74.5992 33.6075 74.079 33.1451 73.6357 32.6055L75.6591 30.5821C76.1409 31.141 76.6901 31.5649 77.3067 31.854C77.9426 32.1237 78.6556 32.2586 79.4457 32.2586C80.1587 32.2586 80.6983 32.1526 81.0644 31.9407C81.4305 31.7287 81.6136 31.4204 81.6136 31.0157C81.6136 30.5918 81.4402 30.2642 81.0933 30.0329C80.7464 29.8017 80.2936 29.609 79.7347 29.4548C79.1952 29.2814 78.6171 29.108 78.0004 28.9345C77.4031 28.7611 76.825 28.5299 76.2661 28.2408C75.7266 27.9325 75.2833 27.5182 74.9365 26.9979C74.5896 26.4776 74.4162 25.8031 74.4162 24.9745C74.4162 24.0881 74.6185 23.3269 75.0232 22.691C75.4471 22.0551 76.0349 21.5637 76.7864 21.2168C77.5572 20.87 78.4726 20.6965 79.5324 20.6965C80.6501 20.6965 81.6329 20.8989 82.4807 21.3035C83.3479 21.6889 84.0705 22.2767 84.6486 23.0668L82.6253 25.0901C82.2206 24.5891 81.7581 24.2133 81.2378 23.9628C80.7175 23.7123 80.1202 23.5871 79.4457 23.5871C78.8098 23.5871 78.3184 23.6834 77.9715 23.8761C77.6247 24.0688 77.4512 24.3482 77.4512 24.7144C77.4512 25.0998 77.6247 25.3985 77.9715 25.6104C78.3184 25.8224 78.7616 26.0055 79.3012 26.1596C79.86 26.3138 80.4381 26.4872 81.0355 26.6799C81.6521 26.8534 82.2302 27.1039 82.7698 27.4315C83.3286 27.7398 83.7815 28.1637 84.1283 28.7033C84.4752 29.2236 84.6486 29.9077 84.6486 30.7556C84.6486 32.1045 84.1765 33.174 83.2323 33.964C82.288 34.7541 81.0066 35.1492 79.3879 35.1492Z" fill="white"/>
<path d="M58.2339 34.8604V14.6267H61.558V34.8604H58.2339ZM60.5174 34.8604V31.8253H71.8483V34.8604H60.5174ZM60.5174 25.9865V23.067H70.8655V25.9865H60.5174ZM60.5174 17.6618V14.6267H71.7037V17.6618H60.5174Z" fill="white"/>
</svg>
