<svg width="114" height="34" viewBox="0 0 114 34" fill="none" xmlns="http://www.w3.org/2000/svg">
<path d="M17 34C7.61222 34 0 26.3878 0 17H17V34Z" fill="#703BF7"/>
<path d="M0 0C9.38778 0 17 7.61222 17 17H0V0Z" fill="#703BF7"/>
<path d="M17 34C26.3878 34 34 26.3878 34 17H17V34Z" fill="#703BF7"/>
<path d="M34 17C34 7.61222 26.3878 0 17 0V17H34Z" fill="#703BF7"/>
<path d="M111.081 24.6927V19.0212C111.081 18.3661 110.869 17.8269 110.446 17.4037C110.037 16.9806 109.504 16.769 108.849 16.769C108.412 16.769 108.023 16.8646 107.682 17.0557C107.341 17.2468 107.075 17.5129 106.884 17.8542C106.692 18.1954 106.597 18.5844 106.597 19.0212L105.717 18.5298C105.717 17.7791 105.88 17.1171 106.208 16.5438C106.536 15.9569 106.986 15.4996 107.559 15.172C108.146 14.8308 108.801 14.6602 109.525 14.6602C110.262 14.6602 110.917 14.8513 111.49 15.2334C112.064 15.602 112.514 16.0865 112.842 16.6871C113.169 17.2741 113.333 17.8883 113.333 18.5298V24.6927H111.081ZM104.345 24.6927V14.8649H106.597V24.6927H104.345Z" fill="white"/>
<path d="M99.567 24.6928V14.865H101.819V24.6928H99.567ZM100.693 13.0632C100.311 13.0632 99.9902 12.9336 99.7308 12.6742C99.4852 12.4149 99.3623 12.0941 99.3623 11.7119C99.3623 11.3297 99.4852 11.009 99.7308 10.7496C99.9902 10.4903 100.311 10.3606 100.693 10.3606C101.089 10.3606 101.41 10.4903 101.655 10.7496C101.901 11.009 102.024 11.3297 102.024 11.7119C102.024 12.0941 101.901 12.4149 101.655 12.6742C101.41 12.9336 101.089 13.0632 100.693 13.0632Z" fill="white"/>
<path d="M93.1751 24.8974C92.1924 24.8974 91.3051 24.679 90.5135 24.2422C89.7354 23.7918 89.1144 23.1776 88.6503 22.3995C88.1998 21.6215 87.9746 20.7479 87.9746 19.7788C87.9746 18.8097 88.1998 17.9429 88.6503 17.1785C89.1007 16.4005 89.7081 15.7863 90.4725 15.3358C91.2505 14.8854 92.1105 14.6602 93.0523 14.6602C93.9668 14.6602 94.7722 14.8717 95.4683 15.2949C96.1781 15.718 96.7309 16.2981 97.1267 17.0352C97.5362 17.7723 97.741 18.6117 97.741 19.5536C97.741 19.7174 97.7273 19.888 97.7 20.0654C97.6864 20.2292 97.6591 20.4135 97.6181 20.6183H89.5511V18.7755H96.4511L95.6116 19.5126C95.5843 18.912 95.4683 18.407 95.2635 17.9975C95.0588 17.588 94.7653 17.2741 94.3831 17.0557C94.0146 16.8373 93.5573 16.7281 93.0113 16.7281C92.4381 16.7281 91.9398 16.8509 91.5167 17.0966C91.0936 17.3423 90.766 17.6904 90.5339 18.1408C90.3019 18.5776 90.1859 19.1031 90.1859 19.7174C90.1859 20.3316 90.3087 20.8708 90.5544 21.3349C90.8001 21.7989 91.1482 22.1607 91.5986 22.42C92.049 22.6657 92.5677 22.7886 93.1547 22.7886C93.6597 22.7886 94.1238 22.6998 94.5469 22.5224C94.9837 22.3449 95.3523 22.0856 95.6526 21.7443L97.0858 23.198C96.608 23.7577 96.0279 24.1808 95.3454 24.4675C94.663 24.7541 93.9395 24.8974 93.1751 24.8974Z" fill="white"/>
<path d="M82.6456 24.6927V10.77H84.8978V24.6927H82.6456ZM80.291 16.9124V14.8649H87.2524V16.9124H80.291Z" fill="white"/>
<path d="M73.3898 24.8974C72.5025 24.8974 71.6972 24.6722 70.9738 24.2218C70.264 23.7713 69.6975 23.1639 69.2744 22.3995C68.8649 21.6215 68.6602 20.7547 68.6602 19.7993C68.6602 18.8301 68.8649 17.9634 69.2744 17.199C69.6975 16.421 70.264 15.8067 70.9738 15.3563C71.6972 14.8922 72.5025 14.6602 73.3898 14.6602C74.1405 14.6602 74.8025 14.824 75.3758 15.1515C75.9627 15.4655 76.4268 15.9023 76.7681 16.4619C77.1093 17.0216 77.2799 17.6563 77.2799 18.366V21.1915C77.2799 21.9013 77.1093 22.536 76.7681 23.0957C76.4405 23.6553 75.9832 24.0989 75.3963 24.4265C74.8093 24.7405 74.1405 24.8974 73.3898 24.8974ZM73.7583 22.7681C74.591 22.7681 75.2598 22.4883 75.7648 21.9286C76.2835 21.369 76.5429 20.6524 76.5429 19.7788C76.5429 19.1919 76.4268 18.6732 76.1948 18.2227C75.9627 17.7723 75.6352 17.4242 75.212 17.1785C74.8025 16.9192 74.318 16.7895 73.7583 16.7895C73.2123 16.7895 72.7278 16.9192 72.3046 17.1785C71.8951 17.4242 71.5675 17.7723 71.3218 18.2227C71.0898 18.6732 70.9738 19.1919 70.9738 19.7788C70.9738 20.3657 71.0898 20.8844 71.3218 21.3349C71.5675 21.7853 71.8951 22.1402 72.3046 22.3995C72.7278 22.6452 73.2123 22.7681 73.7583 22.7681ZM76.3995 24.6927V22.0515L76.7886 19.6559L76.3995 17.2809V14.8649H78.6517V24.6927H76.3995Z" fill="white"/>
<path d="M63.3106 24.6927V10.77H65.5628V24.6927H63.3106ZM60.9561 16.9124V14.8649H67.9174V16.9124H60.9561Z" fill="white"/>
<path d="M56.2326 24.8974C55.6867 24.8974 55.1611 24.8292 54.6561 24.6927C54.1511 24.5425 53.687 24.3378 53.2638 24.0785C52.8407 23.8055 52.4721 23.4779 52.1582 23.0957L53.5914 21.6625C53.9327 22.0583 54.3217 22.3586 54.7585 22.5633C55.2089 22.7544 55.714 22.85 56.2736 22.85C56.7786 22.85 57.1608 22.7749 57.4202 22.6248C57.6795 22.4746 57.8092 22.2562 57.8092 21.9696C57.8092 21.6693 57.6863 21.4372 57.4406 21.2734C57.1949 21.1096 56.8742 20.9731 56.4783 20.8639C56.0961 20.7411 55.6867 20.6182 55.2499 20.4954C54.8267 20.3726 54.4172 20.2088 54.0214 20.004C53.6392 19.7856 53.3253 19.4921 53.0796 19.1236C52.8339 18.7551 52.711 18.2773 52.711 17.6904C52.711 17.0625 52.8543 16.5233 53.141 16.0729C53.4413 15.6225 53.8576 15.2744 54.3899 15.0287C54.9359 14.783 55.5843 14.6602 56.335 14.6602C57.1267 14.6602 57.8228 14.8035 58.4234 15.0901C59.0377 15.3631 59.5495 15.7794 59.959 16.3391L58.5258 17.7723C58.2391 17.4174 57.9116 17.1512 57.543 16.9738C57.1745 16.7963 56.7513 16.7076 56.2736 16.7076C55.8231 16.7076 55.4751 16.7759 55.2294 16.9124C54.9837 17.0489 54.8608 17.2468 54.8608 17.5061C54.8608 17.7791 54.9837 17.9907 55.2294 18.1408C55.4751 18.291 55.789 18.4206 56.1712 18.5298C56.5671 18.639 56.9765 18.7619 57.3997 18.8984C57.8365 19.0212 58.246 19.1987 58.6282 19.4307C59.024 19.6491 59.3448 19.9494 59.5905 20.3316C59.8362 20.7001 59.959 21.1847 59.959 21.7853C59.959 22.7408 59.6246 23.4983 58.9558 24.058C58.2869 24.6176 57.3792 24.8974 56.2326 24.8974Z" fill="white"/>
<path d="M41.249 24.6928V10.3606H43.6036V24.6928H41.249ZM42.8665 24.6928V22.543H50.8925V24.6928H42.8665ZM42.8665 18.4071V16.3392H50.1964V18.4071H42.8665ZM42.8665 12.5104V10.3606H50.7902V12.5104H42.8665Z" fill="white"/>
</svg>
