<svg width="357" height="60" viewBox="0 0 357 60" fill="none" xmlns="http://www.w3.org/2000/svg">
<rect x="46.5" width="60" height="60" rx="30" fill="#141414"/>
<path d="M79.6203 23.32H81.5003V20.14C80.5901 20.0454 79.6755 19.9986 78.7603 20C76.0403 20 74.1803 21.66 74.1803 24.7V27.32H71.1104V30.88H74.1803V40H77.8603V30.88H80.9203L81.3803 27.32H77.8603V25.05C77.8603 24 78.1403 23.32 79.6203 23.32Z" fill="white"/>
<rect x="114.5" width="60" height="60" rx="30" fill="#141414"/>
<path d="M151.558 21.6666H137.442C137.283 21.6644 137.126 21.6935 136.978 21.7522C136.831 21.8109 136.696 21.8981 136.582 22.0087C136.469 22.1194 136.378 22.2514 136.315 22.3971C136.252 22.5429 136.219 22.6996 136.217 22.8583V37.1416C136.219 37.3003 136.252 37.457 136.315 37.6028C136.378 37.7486 136.469 37.8805 136.582 37.9912C136.696 38.1019 136.831 38.189 136.978 38.2477C137.126 38.3064 137.283 38.3355 137.442 38.3333H151.558C151.717 38.3355 151.875 38.3064 152.022 38.2477C152.17 38.189 152.304 38.1019 152.418 37.9912C152.532 37.8805 152.622 37.7486 152.685 37.6028C152.748 37.457 152.781 37.3003 152.783 37.1416V22.8583C152.781 22.6996 152.748 22.5429 152.685 22.3971C152.622 22.2514 152.532 22.1194 152.418 22.0087C152.304 21.8981 152.17 21.8109 152.022 21.7522C151.875 21.6935 151.717 21.6644 151.558 21.6666ZM141.242 35.6166H138.742V28.1166H141.242V35.6166ZM139.992 27.0666C139.647 27.0666 139.316 26.9297 139.073 26.6859C138.829 26.4421 138.692 26.1114 138.692 25.7666C138.692 25.4218 138.829 25.0912 139.073 24.8474C139.316 24.6036 139.647 24.4666 139.992 24.4666C140.175 24.4459 140.36 24.464 140.536 24.5199C140.711 24.5757 140.873 24.668 141.011 24.7908C141.148 24.9135 141.258 25.0639 141.333 25.232C141.409 25.4002 141.448 25.5824 141.448 25.7666C141.448 25.9509 141.409 26.133 141.333 26.3012C141.258 26.4694 141.148 26.6198 141.011 26.7425C140.873 26.8652 140.711 26.9575 140.536 27.0134C140.36 27.0692 140.175 27.0874 139.992 27.0666ZM150.258 35.6166H147.758V31.5916C147.758 30.5833 147.4 29.925 146.492 29.925C146.211 29.927 145.937 30.0152 145.707 30.1776C145.478 30.34 145.304 30.5688 145.208 30.8333C145.143 31.0292 145.115 31.2354 145.125 31.4416V35.6083H142.625C142.625 35.6083 142.625 28.7916 142.625 28.1083H145.125V29.1666C145.352 28.7725 145.683 28.4479 146.08 28.2276C146.478 28.0074 146.929 27.8998 147.383 27.9166C149.05 27.9166 150.258 28.9916 150.258 31.3V35.6166Z" fill="white"/>
<rect x="182.5" width="60" height="60" rx="30" fill="#141414"/>
<path d="M220.834 24.8333C220.207 25.105 219.545 25.2847 218.867 25.3666C219.582 24.9394 220.118 24.2672 220.375 23.4749C219.703 23.875 218.968 24.1568 218.2 24.3083C217.687 23.7521 217.004 23.3818 216.259 23.2556C215.513 23.1294 214.746 23.2544 214.078 23.6109C213.411 23.9674 212.881 24.5354 212.571 25.2256C212.262 25.9159 212.19 26.6894 212.367 27.4249C211.008 27.3562 209.679 27.0024 208.466 26.3865C207.253 25.7706 206.183 24.9063 205.325 23.8499C205.025 24.3751 204.867 24.9698 204.867 25.5749C204.866 26.1369 205.004 26.6904 205.268 27.1862C205.533 27.682 205.916 28.1047 206.384 28.4166C205.84 28.4018 205.309 28.256 204.834 27.9916V28.0333C204.838 28.8207 205.114 29.5825 205.615 30.1899C206.116 30.7973 206.811 31.213 207.584 31.3666C207.286 31.4571 206.978 31.5048 206.667 31.5083C206.452 31.5058 206.237 31.4862 206.025 31.4499C206.245 32.1273 206.671 32.7192 207.243 33.1434C207.815 33.5676 208.505 33.8029 209.217 33.8166C208.015 34.7627 206.53 35.279 205 35.2833C204.722 35.2842 204.443 35.2675 204.167 35.2333C205.729 36.2418 207.549 36.7772 209.409 36.7749C210.692 36.7883 211.965 36.5458 213.153 36.0617C214.341 35.5775 215.421 34.8615 216.33 33.9553C217.238 33.0492 217.957 31.9711 218.444 30.784C218.931 29.5969 219.177 28.3247 219.167 27.0416C219.167 26.8999 219.167 26.7499 219.167 26.5999C219.821 26.1123 220.385 25.5145 220.834 24.8333Z" fill="white"/>
<rect x="250.5" width="60" height="60" rx="30" fill="#141414"/>
<path d="M289.667 28.0917C289.708 26.8989 289.447 25.715 288.909 24.65C288.543 24.213 288.036 23.9181 287.475 23.8167C285.156 23.6063 282.828 23.52 280.5 23.5583C278.181 23.5183 275.861 23.6017 273.55 23.8083C273.093 23.8914 272.671 24.1057 272.334 24.425C271.584 25.1167 271.5 26.3 271.417 27.3C271.296 29.098 271.296 30.902 271.417 32.7C271.441 33.2628 271.525 33.8215 271.667 34.3667C271.767 34.7875 271.971 35.1769 272.259 35.5C272.598 35.8362 273.031 36.0627 273.5 36.15C275.297 36.3718 277.107 36.4637 278.917 36.425C281.834 36.4667 284.392 36.425 287.417 36.1917C287.898 36.1097 288.343 35.8829 288.692 35.5417C288.925 35.3082 289.099 35.0226 289.2 34.7083C289.498 33.7938 289.645 32.8367 289.634 31.875C289.667 31.4083 289.667 28.5917 289.667 28.0917ZM278.617 32.375V27.2167L283.55 29.8083C282.167 30.575 280.342 31.4417 278.617 32.375Z" fill="white"/>
</svg>
